<svg width="1920" height="1080" viewBox="0 0 1920 1080" fill="none" xmlns="http://www.w3.org/2000/svg">
<g clip-path="url(#clip0_1011_754)">
<rect width="1920" height="1080" fill="url(#paint0_linear_1011_754)"/>
<path d="M533 478.684C533 475.545 530.799 473 528.083 473H478.917C476.201 473 474 475.545 474 478.684V512.789C474 515.929 476.201 518.474 478.917 518.474H483.833C486.292 522.737 488.75 525.579 493.667 527C492.438 524.158 492.438 521.316 493.667 518.474H528.083C530.799 518.474 533 515.929 533 512.789V478.684Z" fill="url(#paint1_linear_1011_754)"/>
<path fillRule="evenodd" clipRule="evenodd" d="M1379.69 425C1377.1 425 1375 427.425 1375 430.417V484.583C1375 487.575 1376.17 490 1378.52 490C1380.87 490 1382.04 487.292 1382.04 484.583V446.667C1382.04 442.179 1385.19 438.542 1389.08 438.542H1430.68C1429.87 436.923 1428.35 435.833 1426.62 435.833H1408.4C1406.62 435.833 1405 434.674 1404.2 432.839L1402.1 427.994C1401.31 426.159 1399.69 425 1397.91 425H1379.69Z" fill="url(#paint2_linear_1011_754)"/>
<path d="M1384.38 446.667C1384.38 443.675 1386.49 441.25 1389.08 441.25H1431.31C1433.9 441.25 1436 443.675 1436 446.667V484.583C1436 487.575 1433.9 490 1431.31 490H1389.08C1386.49 490 1384.38 487.575 1384.38 484.583V446.667Z" fill="url(#paint3_linear_1011_754)"/>
<path fillRule="evenodd" clipRule="evenodd" d="M818.404 796.221C820.051 797.849 820.051 800.487 818.404 802.114L797.78 822.5L818.404 842.886C820.051 844.513 820.051 847.151 818.404 848.779C816.758 850.406 814.089 850.406 812.443 848.779L791.222 827.803C788.259 824.874 788.259 820.126 791.222 817.197L812.443 796.221C814.089 794.594 816.758 794.594 818.404 796.221Z" fill="url(#paint4_linear_1011_754)"/>
<path fillRule="evenodd" clipRule="evenodd" d="M854.596 796.221C852.949 797.849 852.949 800.487 854.596 802.114L875.22 822.5L854.596 842.886C852.949 844.513 852.949 847.151 854.596 848.779C856.242 850.406 858.911 850.406 860.557 848.779L881.778 827.803C884.741 824.874 884.741 820.126 881.778 817.197L860.557 796.221C858.911 794.594 856.242 794.594 854.596 796.221Z" fill="url(#paint5_linear_1011_754)"/>
<path fillRule="evenodd" clipRule="evenodd" d="M847.315 795.29C849.482 796.131 850.548 798.549 849.697 800.691L831.15 847.356C830.299 849.498 827.852 850.552 825.685 849.71C823.518 848.869 822.452 846.451 823.303 844.309L841.85 797.644C842.701 795.502 845.148 794.448 847.315 795.29Z" fill="url(#paint6_linear_1011_754)"/>
<path d="M1054.62 856.407C1054.62 863.362 1048.89 869 1041.81 869C1034.74 869 1029 863.362 1029 856.407C1029 849.453 1034.74 843.815 1041.81 843.815C1048.89 843.815 1054.62 849.453 1054.62 856.407Z" fill="url(#paint7_linear_1011_754)"/>
<path d="M1070 827.864C1070 832.037 1066.56 835.42 1062.31 835.42C1058.07 835.42 1054.62 832.037 1054.62 827.864C1054.62 823.691 1058.07 820.309 1062.31 820.309C1066.56 820.309 1070 823.691 1070 827.864Z" fill="url(#paint8_linear_1011_754)"/>
<path d="M1045.23 806.877C1045.23 810.122 1042.55 812.753 1039.25 812.753C1035.95 812.753 1033.27 810.122 1033.27 806.877C1033.27 803.631 1035.95 801 1039.25 801C1042.55 801 1045.23 803.631 1045.23 806.877Z" fill="url(#paint9_linear_1011_754)"/>
<path d="M1121 183.407C1121 190.362 1115.4 196 1108.5 196C1101.6 196 1096 190.362 1096 183.407C1096 176.453 1101.6 170.815 1108.5 170.815C1115.4 170.815 1121 176.453 1121 183.407Z" fill="url(#paint10_linear_1011_754)"/>
<path d="M1136 154.864C1136 159.037 1132.64 162.42 1128.5 162.42C1124.36 162.42 1121 159.037 1121 154.864C1121 150.691 1124.36 147.309 1128.5 147.309C1132.64 147.309 1136 150.691 1136 154.864Z" fill="url(#paint11_linear_1011_754)"/>
<path d="M1111.83 133.877C1111.83 137.122 1109.22 139.753 1106 139.753C1102.78 139.753 1100.17 137.122 1100.17 133.877C1100.17 130.631 1102.78 128 1106 128C1109.22 128 1111.83 130.631 1111.83 133.877Z" fill="url(#paint12_linear_1011_754)"/>
<path d="M348 595.222C348 602.279 342.404 608 335.5 608C328.596 608 323 602.279 323 595.222C323 588.165 328.596 582.444 335.5 582.444C342.404 582.444 348 588.165 348 595.222Z" fill="url(#paint13_linear_1011_754)"/>
<path d="M363 566.259C363 570.493 359.642 573.926 355.5 573.926C351.358 573.926 348 570.493 348 566.259C348 562.025 351.358 558.593 355.5 558.593C359.642 558.593 363 562.025 363 566.259Z" fill="url(#paint14_linear_1011_754)"/>
<path d="M338.833 544.963C338.833 548.256 336.222 550.926 333 550.926C329.778 550.926 327.167 548.256 327.167 544.963C327.167 541.67 329.778 539 333 539C336.222 539 338.833 541.67 338.833 544.963Z" fill="url(#paint15_linear_1011_754)"/>
<path d="M1300 801L1304.05 816.693L1315 822.5L1304.05 828.307L1300 844L1295.95 828.307L1285 822.5L1295.95 816.693L1300 801Z" fill="url(#paint16_linear_1011_754)"/>
<path d="M1315 203L1321.48 227.452L1339 236.5L1321.48 245.548L1315 270L1308.52 245.548L1291 236.5L1308.52 227.452L1315 203Z" fill="url(#paint17_linear_1011_754)"/>
<path d="M447 814L454.833 843.926L476 855L454.833 866.074L447 896L439.167 866.074L418 855L439.167 843.926L447 814Z" fill="url(#paint18_linear_1011_754)"/>
<path d="M586.5 191L595.278 223.846L619 236L595.278 248.154L586.5 281L577.722 248.154L554 236L577.722 223.846L586.5 191Z" fill="url(#paint19_linear_1011_754)"/>
<path d="M699.158 769H625.474C606.87 769 591.789 753.778 591.789 735H492.842C483.54 735 476 727.389 476 718C476 708.611 483.54 701 492.842 701H658.737C677.34 701 692.421 716.222 692.421 735H699.158C708.46 735 716 742.611 716 752C716 761.389 708.46 769 699.158 769Z" fill="url(#paint20_linear_1011_754)"/>
<path d="M668.158 795H542.684C524.081 795 509 779.778 509 761H461.842C452.54 761 445 753.389 445 744C445 734.611 452.54 727 461.842 727H587.316C605.919 727 621 742.222 621 761H668.158C677.46 761 685 768.611 685 778C685 787.389 677.46 795 668.158 795Z" fill="url(#paint21_linear_1011_754)"/>
<path d="M1403.84 355H1529.32C1547.92 355 1563 340.002 1563 321.5H1610.16C1619.46 321.5 1627 314.001 1627 304.75C1627 295.499 1619.46 288 1610.16 288H1484.68C1466.08 288 1451 302.998 1451 321.5H1403.84C1394.54 321.5 1387 328.999 1387 338.25C1387 347.501 1394.54 355 1403.84 355Z" fill="url(#paint22_linear_1011_754)"/>
<path d="M1270.91 747H1396.91C1415.59 747 1430.73 732.002 1430.73 713.5H1478.09C1487.43 713.5 1495 706.001 1495 696.75C1495 687.499 1487.43 680 1478.09 680H1352.09C1333.41 680 1318.27 694.998 1318.27 713.5H1270.91C1261.57 713.5 1254 720.999 1254 730.25C1254 739.501 1261.57 747 1270.91 747Z" fill="url(#paint23_linear_1011_754)"/>
<path d="M411.842 412H537.316C555.919 412 571 396.778 571 378H618.158C627.46 378 635 370.389 635 361C635 351.611 627.46 344 618.158 344H492.684C474.081 344 459 359.222 459 378H411.842C402.54 378 395 385.611 395 395C395 404.389 402.54 412 411.842 412Z" fill="url(#paint24_linear_1011_754)"/>
<g filter="url(#filter0_f_1011_754)">
<path d="M1004.4 713.54C908.888 752.111 491.945 788.789 345.235 587.695C198.525 386.601 140.626 269.422 194.248 186.929C247.871 104.435 495.321 184.511 788.485 269.926C788.485 269.926 1683.97 495.018 1004.4 713.54Z" fill="white" fill-opacity="0.17"/>
</g>
<g filter="url(#filter1_f_1011_754)">
<path d="M1577.92 622.023L984.857 459.586C982.004 458.805 978.995 458.805 976.143 459.586L383.079 622.023C374.974 624.243 374.974 635.757 383.079 637.977L976.143 800.414C978.995 801.195 982.004 801.195 984.857 800.414L1577.92 637.977C1586.03 635.757 1586.03 624.243 1577.92 622.023Z" fill="url(#paint25_linear_1011_754)"/>
</g>
<path d="M976.441 761.521L491.966 628.651C488.685 627.751 487.029 624.984 487 622.2V574H1473V622.2C1472.97 624.984 1471.32 627.751 1468.03 628.651L983.559 761.521C981.229 762.16 978.771 762.16 976.441 761.521Z" fill="url(#paint26_linear_1011_754)"/>
<path d="M1468.03 567.992L983.559 435.478C981.229 434.841 978.771 434.841 976.441 435.478L491.966 567.992C485.345 569.803 485.345 579.197 491.966 581.008L976.441 713.522C978.771 714.159 981.229 714.159 983.559 713.522L1468.03 581.008C1474.66 579.197 1474.66 569.803 1468.03 567.992Z" fill="url(#paint27_linear_1011_754)"/>
<path fillRule="evenodd" clipRule="evenodd" d="M676.683 338.063L689.468 340.848C690.369 341.044 691.109 341.677 691.436 342.532L695.262 352.515C695.457 353.024 695.803 353.463 696.253 353.775L703.267 358.63C703.72 358.943 704.258 359.113 704.81 359.118L715.534 359.202C716.458 359.21 717.316 359.68 717.814 360.452L724.869 371.387C725.366 372.157 725.438 373.124 725.06 373.958L720.648 383.701C720.423 384.198 720.354 384.75 720.45 385.286L721.949 393.639C722.046 394.178 722.304 394.675 722.692 395.065L730.215 402.646C730.863 403.299 731.135 404.233 730.936 405.128L728.129 417.809C727.931 418.702 727.292 419.436 726.431 419.761L716.365 423.555C715.851 423.749 715.409 424.091 715.095 424.538L710.199 431.495C709.883 431.944 709.712 432.477 709.708 433.024L709.622 443.661C709.615 444.578 709.141 445.428 708.363 445.922L697.337 452.92C696.56 453.412 695.586 453.484 694.745 453.109L684.921 448.733C684.421 448.51 683.864 448.442 683.323 448.537L674.901 450.023C674.358 450.119 673.857 450.376 673.463 450.76L665.82 458.221C665.161 458.864 664.22 459.133 663.317 458.937L650.532 456.152C649.631 455.956 648.891 455.323 648.564 454.468L644.737 444.485C644.542 443.976 644.197 443.537 643.747 443.225L636.732 438.37C636.28 438.057 635.742 437.887 635.19 437.882L624.466 437.798C623.542 437.79 622.684 437.32 622.186 436.548L615.131 425.613C614.634 424.843 614.562 423.876 614.94 423.042L619.352 413.299C619.577 412.803 619.646 412.25 619.55 411.714L618.051 403.361C617.954 402.822 617.695 402.325 617.308 401.935L609.785 394.354C609.137 393.701 608.865 392.767 609.064 391.872L611.871 379.191C612.069 378.298 612.708 377.564 613.569 377.239L623.635 373.445C624.148 373.251 624.591 372.909 624.905 372.462L629.801 365.505C630.116 365.056 630.288 364.523 630.292 363.976L630.378 353.339C630.385 352.422 630.859 351.572 631.637 351.078L642.663 344.08C643.44 343.588 644.414 343.516 645.255 343.891L655.078 348.267C655.579 348.49 656.136 348.559 656.677 348.463L665.098 346.977C665.642 346.881 666.143 346.624 666.536 346.24L674.18 338.779C674.839 338.136 675.78 337.867 676.683 338.063ZM660.769 440.188C683.983 445.244 706.935 430.679 712.033 407.655C717.131 384.631 702.445 361.868 679.231 356.812C656.017 351.756 633.065 366.321 627.967 389.345C622.869 412.369 637.555 435.132 660.769 440.188Z" fill="url(#paint28_linear_1011_754)"/>
<path fillRule="evenodd" clipRule="evenodd" d="M810.483 220.124L835.32 225.578C837.069 225.962 838.506 227.202 839.143 228.876L846.575 248.431C846.954 249.428 847.625 250.287 848.499 250.898L862.126 260.408C863.005 261.022 864.05 261.354 865.122 261.363L885.956 261.528C887.751 261.543 889.417 262.463 890.385 263.975L904.09 285.395C905.056 286.903 905.195 288.797 904.461 290.43L895.89 309.513C895.453 310.486 895.319 311.568 895.506 312.618L898.417 328.978C898.605 330.034 899.108 331.008 899.86 331.772L914.475 346.621C915.734 347.9 916.261 349.729 915.876 351.483L910.422 376.32C910.038 378.069 908.798 379.506 907.124 380.143L887.569 387.576C886.572 387.954 885.712 388.625 885.102 389.499L875.592 403.126C874.978 404.006 874.645 405.05 874.637 406.122L874.472 426.956C874.457 428.751 873.537 430.417 872.025 431.385L850.605 445.09C849.097 446.056 847.203 446.195 845.57 445.461L826.487 436.89C825.514 436.453 824.432 436.319 823.382 436.506L807.022 439.417C805.966 439.605 804.992 440.108 804.228 440.86L789.379 455.475C788.1 456.734 786.271 457.261 784.517 456.876L759.68 451.422C757.931 451.038 756.494 449.798 755.857 448.124L748.424 428.569C748.046 427.572 747.375 426.713 746.501 426.102L732.874 416.592C731.994 415.979 730.95 415.646 729.878 415.637L709.044 415.472C707.249 415.457 705.583 414.537 704.615 413.025L690.91 391.605C689.944 390.097 689.805 388.203 690.539 386.57L699.11 367.487C699.547 366.514 699.681 365.432 699.494 364.382L696.583 348.022C696.395 346.966 695.892 345.992 695.14 345.228L680.525 330.379C679.266 329.1 678.739 327.271 679.124 325.517L684.578 300.68C684.962 298.931 686.202 297.494 687.876 296.857L707.431 289.425C708.428 289.046 709.287 288.375 709.898 287.501L719.408 273.874C720.021 272.995 720.354 271.95 720.363 270.878L720.528 250.044C720.543 248.249 721.463 246.583 722.975 245.615L744.395 231.91C745.903 230.944 747.797 230.805 749.43 231.539L768.513 240.11C769.486 240.547 770.568 240.681 771.618 240.494L787.978 237.583C789.034 237.395 790.008 236.892 790.772 236.14L805.621 221.525C806.9 220.266 808.729 219.739 810.483 220.124ZM779.568 420.154C824.664 430.057 869.25 401.528 879.154 356.432C889.057 311.336 860.528 266.75 815.432 256.846C770.336 246.943 725.75 275.472 715.846 320.568C705.943 365.664 734.472 410.25 779.568 420.154Z" fill="url(#paint29_linear_1011_754)"/>
<path d="M1260.03 425.802C1290.39 425.802 1315 402.885 1315 374.615C1315 346.346 1290.39 323.429 1260.03 323.429C1252.3 323.429 1244.95 324.912 1238.28 327.59C1235.4 310.442 1218.44 297.275 1197.95 297.275C1197.75 297.275 1197.55 297.276 1197.36 297.278C1194.31 263.021 1159.23 236 1116.42 236C1082.8 236 1053.96 252.655 1041.64 276.39C1041.43 276.807 1041.22 277.225 1041.01 277.646C1015.45 280.375 993.782 293.082 982.206 310.765C972.352 302.389 959.203 297.275 944.763 297.275C918.254 297.275 896.098 314.509 890.681 337.522L890.663 337.6L890.637 337.709C872.397 338.916 858 353.138 858 370.505C858 388.664 873.739 403.385 893.154 403.385C899.176 403.385 904.844 401.968 909.799 399.472C927.142 422.626 999.833 440 1086.87 440C1146.23 440 1198.91 431.921 1231.92 419.439C1232.22 419.326 1232.51 419.213 1232.81 419.1C1240.83 423.365 1250.12 425.802 1260.03 425.802Z" fill="url(#paint30_linear_1011_754)"/>
<path d="M663.975 487.802C633.613 487.802 609 464.885 609 436.615C609 409.449 631.729 387.226 660.446 385.532C660.438 385.158 660.434 384.782 660.434 384.405C660.434 357.635 682.14 335.934 708.916 335.934C716.447 335.934 723.577 337.65 729.935 340.714C730.408 340.942 730.877 341.177 731.341 341.42C742.71 316.084 772.555 298 807.582 298C841.197 298 870.038 314.655 882.357 338.39C882.574 338.807 882.785 339.225 882.991 339.646C908.552 342.375 930.218 355.082 941.794 372.765C951.648 364.389 964.797 359.275 979.237 359.275C1005.75 359.275 1027.9 376.509 1033.32 399.522L1033.34 399.6L1033.36 399.709C1051.6 400.916 1066 415.138 1066 432.505C1066 450.664 1050.26 465.385 1030.85 465.385C1024.82 465.385 1019.16 463.968 1014.2 461.472C996.858 484.626 924.167 502 837.126 502C777.771 502 725.089 493.921 692.08 481.439C691.782 481.326 691.485 481.213 691.19 481.1C683.166 485.365 673.876 487.802 663.975 487.802Z" fill="url(#paint31_linear_1011_754)"/>
<path d="M736.597 542.121C692.085 542.121 656 508.419 656 466.846C656 425.273 692.085 391.571 736.597 391.571C747.923 391.571 758.702 393.753 768.481 397.691C772.702 372.473 797.568 353.11 827.612 353.11C827.901 353.11 828.188 353.112 828.476 353.115C832.947 302.737 884.365 263 947.137 263C996.419 263 1038.7 287.492 1056.76 322.398C1057.08 323.01 1057.39 323.626 1057.69 324.244C1095.17 328.257 1126.93 346.945 1143.9 372.949C1158.35 360.631 1177.63 353.11 1198.8 353.11C1237.66 353.11 1270.14 378.454 1278.09 412.297L1278.11 412.412L1278.15 412.573C1304.89 414.347 1326 435.262 1326 460.802C1326 487.506 1302.93 509.154 1274.46 509.154C1265.63 509.154 1257.32 507.071 1250.06 503.401C1224.63 537.45 1118.06 563 990.452 563C903.432 563 826.196 551.119 777.803 532.763C777.365 532.598 776.93 532.431 776.498 532.264C764.734 538.537 751.114 542.121 736.597 542.121Z" fill="url(#paint32_linear_1011_754)"/>
<path d="M1108.75 349.239L817.964 427.967C812.083 429.559 808 434.883 808 440.961V646.358C808 649.408 810.056 652.077 813.011 652.863L820.658 654.896L976.314 693.6C978.551 694.156 980.893 694.132 983.118 693.53L1284.02 612.065C1286.96 611.269 1289 608.607 1289 605.568V598.761C1289 595.67 1286.89 592.976 1283.88 592.228L1129.93 553.949V359.102C1129.93 355.828 1127.63 353.214 1124.7 352.537L1112.63 349.337C1111.43 348.941 1110.1 348.876 1108.75 349.239Z" fill="url(#paint33_linear_1011_754)"/>
<path d="M821 638.218L1130.05 554L1281.58 591.924C1283.57 592.424 1283.6 595.252 1281.62 595.794L979.951 678L821 638.218Z" fill="url(#paint34_linear_1011_754)"/>
<path d="M837.251 634.977L857.907 629.455C858.455 629.309 859.032 629.303 859.583 629.438L866.677 631.18C868.372 631.596 868.396 633.995 866.711 634.446L846.055 639.968C845.507 640.114 844.93 640.12 844.379 639.985L837.284 638.243C835.59 637.827 835.565 635.427 837.251 634.977Z" fill="url(#paint35_linear_1011_754)"/>
<path d="M867.61 626.547L888.266 621.025C888.815 620.879 889.391 620.873 889.942 621.008L897.037 622.75C898.731 623.166 898.756 625.565 897.07 626.016L876.414 631.538C875.866 631.684 875.29 631.69 874.738 631.555L867.644 629.813C865.949 629.397 865.925 626.997 867.61 626.547Z" fill="url(#paint36_linear_1011_754)"/>
<path d="M897.262 618.958L918.355 613.43C918.893 613.289 919.459 613.283 920 613.413L927.262 615.161C928.966 615.572 928.991 617.987 927.295 618.431L906.202 623.959C905.663 624.1 905.098 624.106 904.557 623.976L897.295 622.228C895.59 621.817 895.566 619.402 897.262 618.958Z" fill="url(#paint37_linear_1011_754)"/>
<path d="M927.486 610.53L948.142 605.008C948.691 604.862 949.267 604.856 949.818 604.991L956.913 606.733C958.607 607.149 958.632 609.549 956.946 609.999L936.29 615.521C935.742 615.667 935.166 615.673 934.614 615.538L927.52 613.796C925.825 613.38 925.801 610.98 927.486 610.53Z" fill="url(#paint38_linear_1011_754)"/>
<path d="M957.846 602.1L978.502 596.578C979.05 596.432 979.627 596.426 980.178 596.561L987.272 598.303C988.967 598.719 988.991 601.119 987.306 601.569L966.65 607.091C966.102 607.237 965.525 607.243 964.974 607.108L957.879 605.366C956.185 604.95 956.16 602.551 957.846 602.1Z" fill="url(#paint39_linear_1011_754)"/>
<path d="M987.362 594.513L1008.02 588.991C1008.57 588.845 1009.14 588.839 1009.69 588.974L1016.79 590.716C1018.48 591.132 1018.51 593.532 1016.82 593.982L996.166 599.504C995.618 599.65 995.041 599.656 994.49 599.521L987.396 597.779C985.701 597.363 985.676 594.964 987.362 594.513Z" fill="url(#paint40_linear_1011_754)"/>
<path d="M1017.72 586.083L1038.38 580.561C1038.93 580.415 1039.5 580.409 1040.05 580.544L1047.15 582.286C1048.84 582.702 1048.87 585.102 1047.18 585.552L1026.53 591.074C1025.98 591.22 1025.4 591.226 1024.85 591.091L1017.76 589.349C1016.06 588.933 1016.04 586.534 1017.72 586.083Z" fill="url(#paint41_linear_1011_754)"/>
<path d="M1047.37 577.651L1068.47 572.123C1069 571.982 1069.57 571.976 1070.11 572.107L1077.37 573.854C1079.08 574.265 1079.1 576.68 1077.41 577.124L1056.31 582.652C1055.77 582.793 1055.21 582.799 1054.67 582.669L1047.41 580.921C1045.7 580.51 1045.68 578.095 1047.37 577.651Z" fill="url(#paint42_linear_1011_754)"/>
<path d="M1077.6 570.066L1098.25 564.544C1098.8 564.398 1099.38 564.392 1099.93 564.527L1107.02 566.269C1108.72 566.685 1108.74 569.085 1107.06 569.535L1086.4 575.057C1085.85 575.203 1085.28 575.209 1084.73 575.074L1077.63 573.332C1075.94 572.916 1075.91 570.517 1077.6 570.066Z" fill="url(#paint43_linear_1011_754)"/>
<path d="M1107.96 561.636L1128.61 556.114C1129.16 555.968 1129.74 555.962 1130.29 556.097L1137.38 557.839C1139.08 558.255 1139.1 560.655 1137.42 561.105L1116.76 566.627C1116.21 566.773 1115.64 566.779 1115.09 566.644L1107.99 564.902C1106.3 564.486 1106.27 562.087 1107.96 561.636Z" fill="url(#paint44_linear_1011_754)"/>
<path d="M854.117 639.192L874.773 633.67C875.322 633.524 875.898 633.518 876.449 633.653L883.544 635.395C885.238 635.811 885.263 638.21 883.577 638.661L862.921 644.183C862.373 644.329 861.797 644.335 861.245 644.2L854.151 642.458C852.456 642.042 852.432 639.642 854.117 639.192Z" fill="url(#paint45_linear_1011_754)"/>
<path d="M884.477 630.762L905.133 625.24C905.681 625.094 906.258 625.088 906.809 625.223L913.903 626.965C915.598 627.381 915.622 629.78 913.937 630.231L893.281 635.753C892.733 635.899 892.156 635.905 891.605 635.77L884.51 634.028C882.816 633.612 882.791 631.212 884.477 630.762Z" fill="url(#paint46_linear_1011_754)"/>
<path d="M914.129 623.173L935.221 617.645C935.76 617.504 936.325 617.498 936.866 617.628L944.128 619.376C945.833 619.787 945.857 622.202 944.161 622.646L923.068 628.174C922.53 628.315 921.964 628.321 921.423 628.191L914.162 626.443C912.457 626.032 912.433 623.617 914.129 623.173Z" fill="url(#paint47_linear_1011_754)"/>
<path d="M944.353 614.745L965.009 609.223C965.557 609.077 966.133 609.071 966.685 609.206L973.779 610.948C975.474 611.364 975.498 613.763 973.813 614.214L953.157 619.736C952.608 619.882 952.032 619.888 951.481 619.753L944.386 618.011C942.692 617.595 942.667 615.195 944.353 614.745Z" fill="url(#paint48_linear_1011_754)"/>
<path d="M974.712 606.315L995.368 600.793C995.917 600.647 996.493 600.641 997.044 600.776L1004.14 602.518C1005.83 602.934 1005.86 605.334 1004.17 605.784L983.516 611.306C982.968 611.452 982.391 611.458 981.84 611.323L974.746 609.581C973.051 609.165 973.027 606.766 974.712 606.315Z" fill="url(#paint49_linear_1011_754)"/>
<path d="M1004.23 598.728L1024.88 593.206C1025.43 593.06 1026.01 593.054 1026.56 593.189L1033.65 594.931C1035.35 595.347 1035.37 597.747 1033.69 598.197L1013.03 603.719C1012.48 603.865 1011.91 603.871 1011.36 603.736L1004.26 601.994C1002.57 601.578 1002.54 599.179 1004.23 598.728Z" fill="url(#paint50_linear_1011_754)"/>
<path d="M1034.59 590.298L1055.24 584.776C1055.79 584.63 1056.37 584.624 1056.92 584.759L1064.01 586.501C1065.71 586.917 1065.73 589.317 1064.05 589.767L1043.39 595.289C1042.84 595.435 1042.27 595.441 1041.72 595.306L1034.62 593.564C1032.93 593.148 1032.9 590.749 1034.59 590.298Z" fill="url(#paint51_linear_1011_754)"/>
<path d="M1064.24 581.866L1085.33 576.338C1085.87 576.197 1086.44 576.191 1086.98 576.322L1094.24 578.069C1095.94 578.48 1095.97 580.895 1094.27 581.339L1073.18 586.867C1072.64 587.008 1072.08 587.014 1071.53 586.884L1064.27 585.136C1062.57 584.725 1062.54 582.31 1064.24 581.866Z" fill="url(#paint52_linear_1011_754)"/>
<path d="M1094.46 574.281L1115.12 568.759C1115.67 568.613 1116.24 568.607 1116.8 568.742L1123.89 570.484C1125.58 570.9 1125.61 573.3 1123.92 573.75L1103.27 579.272C1102.72 579.418 1102.14 579.424 1101.59 579.289L1094.5 577.547C1092.8 577.131 1092.78 574.732 1094.46 574.281Z" fill="url(#paint53_linear_1011_754)"/>
<path d="M1124.82 565.851L1145.48 560.329C1146.03 560.183 1146.6 560.177 1147.16 560.312L1154.25 562.054C1155.94 562.47 1155.97 564.87 1154.28 565.32L1133.63 570.842C1133.08 570.988 1132.5 570.994 1131.95 570.859L1124.86 569.117C1123.16 568.701 1123.14 566.302 1124.82 565.851Z" fill="url(#paint54_linear_1011_754)"/>
<path d="M870.984 643.407L891.64 637.885C892.188 637.739 892.764 637.733 893.316 637.868L900.41 639.61C902.105 640.026 902.129 642.425 900.444 642.876L879.788 648.398C879.239 648.544 878.663 648.55 878.112 648.415L871.017 646.673C869.323 646.257 869.298 643.857 870.984 643.407Z" fill="url(#paint55_linear_1011_754)"/>
<path d="M901.343 634.977L921.999 629.455C922.548 629.309 923.124 629.303 923.675 629.438L930.77 631.18C932.464 631.596 932.489 633.995 930.803 634.446L910.147 639.968C909.599 640.114 909.023 640.12 908.471 639.985L901.377 638.243C899.682 637.827 899.658 635.427 901.343 634.977Z" fill="url(#paint56_linear_1011_754)"/>
<path d="M930.995 627.388L952.088 621.86C952.626 621.719 953.192 621.713 953.733 621.843L960.994 623.591C962.699 624.002 962.723 626.417 961.027 626.861L939.935 632.389C939.396 632.53 938.831 632.536 938.29 632.406L931.028 630.658C929.323 630.247 929.299 627.832 930.995 627.388Z" fill="url(#paint57_linear_1011_754)"/>
<path d="M961.219 618.96L981.875 613.438C982.423 613.292 983 613.286 983.551 613.421L990.646 615.163C992.34 615.579 992.365 617.978 990.679 618.429L970.023 623.951C969.475 624.097 968.898 624.103 968.347 623.968L961.253 622.226C959.558 621.81 959.534 619.41 961.219 618.96Z" fill="url(#paint58_linear_1011_754)"/>
<path d="M991.579 610.53L1012.23 605.008C1012.78 604.862 1013.36 604.856 1013.91 604.991L1021.01 606.733C1022.7 607.149 1022.72 609.549 1021.04 609.999L1000.38 615.521C999.834 615.667 999.258 615.673 998.707 615.538L991.612 613.796C989.918 613.38 989.893 610.98 991.579 610.53Z" fill="url(#paint59_linear_1011_754)"/>
<path d="M1021.09 602.943L1041.75 597.421C1042.3 597.275 1042.88 597.269 1043.43 597.404L1050.52 599.146C1052.22 599.562 1052.24 601.962 1050.55 602.412L1029.9 607.934C1029.35 608.08 1028.77 608.086 1028.22 607.951L1021.13 606.209C1019.43 605.793 1019.41 603.394 1021.09 602.943Z" fill="url(#paint60_linear_1011_754)"/>
<path d="M1051.45 594.513L1072.11 588.991C1072.66 588.845 1073.24 588.839 1073.79 588.974L1080.88 590.716C1082.58 591.132 1082.6 593.532 1080.91 593.982L1060.26 599.504C1059.71 599.65 1059.13 599.656 1058.58 599.521L1051.49 597.779C1049.79 597.363 1049.77 594.964 1051.45 594.513Z" fill="url(#paint61_linear_1011_754)"/>
<path d="M1081.11 586.081L1102.2 580.553C1102.74 580.412 1103.3 580.406 1103.84 580.537L1111.11 582.284C1112.81 582.695 1112.83 585.11 1111.14 585.554L1090.05 591.082C1089.51 591.223 1088.94 591.229 1088.4 591.099L1081.14 589.351C1079.43 588.94 1079.41 586.525 1081.11 586.081Z" fill="url(#paint62_linear_1011_754)"/>
<path d="M1111.33 578.496L1131.99 572.974C1132.53 572.828 1133.11 572.822 1133.66 572.957L1140.76 574.699C1142.45 575.115 1142.48 577.515 1140.79 577.965L1120.13 583.487C1119.59 583.633 1119.01 583.639 1118.46 583.504L1111.36 581.762C1109.67 581.346 1109.64 578.947 1111.33 578.496Z" fill="url(#paint63_linear_1011_754)"/>
<path d="M1141.69 570.066L1162.35 564.544C1162.89 564.398 1163.47 564.392 1164.02 564.527L1171.12 566.269C1172.81 566.685 1172.84 569.085 1171.15 569.535L1150.49 575.057C1149.95 575.203 1149.37 575.209 1148.82 575.074L1141.72 573.332C1140.03 572.916 1140 570.517 1141.69 570.066Z" fill="url(#paint64_linear_1011_754)"/>
<path d="M837.251 634.977L857.907 629.455C858.455 629.309 859.032 629.303 859.583 629.438L866.677 631.18C868.372 631.596 868.396 633.995 866.711 634.446L846.055 639.968C845.507 640.114 844.93 640.12 844.379 639.985L837.284 638.243C835.59 637.827 835.565 635.427 837.251 634.977Z" fill="url(#paint65_linear_1011_754)"/>
<path d="M867.61 626.547L888.266 621.025C888.815 620.879 889.391 620.873 889.942 621.008L897.037 622.75C898.731 623.166 898.756 625.565 897.07 626.016L876.414 631.538C875.866 631.684 875.29 631.69 874.738 631.555L867.644 629.813C865.949 629.397 865.925 626.997 867.61 626.547Z" fill="url(#paint66_linear_1011_754)"/>
<path d="M897.262 618.958L918.355 613.43C918.893 613.289 919.459 613.283 920 613.413L927.262 615.161C928.966 615.572 928.991 617.987 927.295 618.431L906.202 623.959C905.663 624.1 905.098 624.106 904.557 623.976L897.295 622.228C895.59 621.817 895.566 619.402 897.262 618.958Z" fill="url(#paint67_linear_1011_754)"/>
<path d="M927.486 610.53L948.142 605.008C948.691 604.862 949.267 604.856 949.818 604.991L956.913 606.733C958.607 607.149 958.632 609.549 956.946 609.999L936.29 615.521C935.742 615.667 935.166 615.673 934.614 615.538L927.52 613.796C925.825 613.38 925.801 610.98 927.486 610.53Z" fill="url(#paint68_linear_1011_754)"/>
<path d="M957.846 602.1L978.502 596.578C979.05 596.432 979.627 596.426 980.178 596.561L987.272 598.303C988.967 598.719 988.991 601.119 987.306 601.569L966.65 607.091C966.102 607.237 965.525 607.243 964.974 607.108L957.879 605.366C956.185 604.95 956.16 602.551 957.846 602.1Z" fill="url(#paint69_linear_1011_754)"/>
<path d="M987.362 594.513L1008.02 588.991C1008.57 588.845 1009.14 588.839 1009.69 588.974L1016.79 590.716C1018.48 591.132 1018.51 593.532 1016.82 593.982L996.166 599.504C995.618 599.65 995.041 599.656 994.49 599.521L987.396 597.779C985.701 597.363 985.676 594.964 987.362 594.513Z" fill="url(#paint70_linear_1011_754)"/>
<path d="M1017.72 586.083L1038.38 580.561C1038.93 580.415 1039.5 580.409 1040.05 580.544L1047.15 582.286C1048.84 582.702 1048.87 585.102 1047.18 585.552L1026.53 591.074C1025.98 591.22 1025.4 591.226 1024.85 591.091L1017.76 589.349C1016.06 588.933 1016.04 586.534 1017.72 586.083Z" fill="url(#paint71_linear_1011_754)"/>
<path d="M1047.37 577.651L1068.47 572.123C1069 571.982 1069.57 571.976 1070.11 572.107L1077.37 573.854C1079.08 574.265 1079.1 576.68 1077.41 577.124L1056.31 582.652C1055.77 582.793 1055.21 582.799 1054.67 582.669L1047.41 580.921C1045.7 580.51 1045.68 578.095 1047.37 577.651Z" fill="url(#paint72_linear_1011_754)"/>
<path d="M1077.6 570.066L1098.25 564.544C1098.8 564.398 1099.38 564.392 1099.93 564.527L1107.02 566.269C1108.72 566.685 1108.74 569.085 1107.06 569.535L1086.4 575.057C1085.85 575.203 1085.28 575.209 1084.73 575.074L1077.63 573.332C1075.94 572.916 1075.91 570.517 1077.6 570.066Z" fill="url(#paint73_linear_1011_754)"/>
<path d="M1107.96 561.636L1128.61 556.114C1129.16 555.968 1129.74 555.962 1130.29 556.097L1137.38 557.839C1139.08 558.255 1139.1 560.655 1137.42 561.105L1116.76 566.627C1116.21 566.773 1115.64 566.779 1115.09 566.644L1107.99 564.902C1106.3 564.486 1106.27 562.087 1107.96 561.636Z" fill="url(#paint74_linear_1011_754)"/>
<path d="M854.117 639.192L874.773 633.67C875.322 633.524 875.898 633.518 876.449 633.653L883.544 635.395C885.238 635.811 885.263 638.21 883.577 638.661L862.921 644.183C862.373 644.329 861.797 644.335 861.245 644.2L854.151 642.458C852.456 642.042 852.432 639.642 854.117 639.192Z" fill="url(#paint75_linear_1011_754)"/>
<path d="M884.477 630.762L905.133 625.24C905.681 625.094 906.258 625.088 906.809 625.223L913.903 626.965C915.598 627.381 915.622 629.78 913.937 630.231L893.281 635.753C892.733 635.899 892.156 635.905 891.605 635.77L884.51 634.028C882.816 633.612 882.791 631.212 884.477 630.762Z" fill="url(#paint76_linear_1011_754)"/>
<path d="M914.129 623.173L935.221 617.645C935.76 617.504 936.325 617.498 936.866 617.628L944.128 619.376C945.833 619.787 945.857 622.202 944.161 622.646L923.068 628.174C922.53 628.315 921.964 628.321 921.423 628.191L914.162 626.443C912.457 626.032 912.433 623.617 914.129 623.173Z" fill="url(#paint77_linear_1011_754)"/>
<path d="M944.353 614.745L965.009 609.223C965.557 609.077 966.133 609.071 966.685 609.206L973.779 610.948C975.474 611.364 975.498 613.763 973.813 614.214L953.157 619.736C952.608 619.882 952.032 619.888 951.481 619.753L944.386 618.011C942.692 617.595 942.667 615.195 944.353 614.745Z" fill="url(#paint78_linear_1011_754)"/>
<path d="M974.712 606.315L995.368 600.793C995.917 600.647 996.493 600.641 997.044 600.776L1004.14 602.518C1005.83 602.934 1005.86 605.334 1004.17 605.784L983.516 611.306C982.968 611.452 982.391 611.458 981.84 611.323L974.746 609.581C973.051 609.165 973.027 606.766 974.712 606.315Z" fill="url(#paint79_linear_1011_754)"/>
<path d="M1004.23 598.728L1024.88 593.206C1025.43 593.06 1026.01 593.054 1026.56 593.189L1033.65 594.931C1035.35 595.347 1035.37 597.747 1033.69 598.197L1013.03 603.719C1012.48 603.865 1011.91 603.871 1011.36 603.736L1004.26 601.994C1002.57 601.578 1002.54 599.179 1004.23 598.728Z" fill="url(#paint80_linear_1011_754)"/>
<path d="M1034.59 590.298L1055.24 584.776C1055.79 584.63 1056.37 584.624 1056.92 584.759L1064.01 586.501C1065.71 586.917 1065.73 589.317 1064.05 589.767L1043.39 595.289C1042.84 595.435 1042.27 595.441 1041.72 595.306L1034.62 593.564C1032.93 593.148 1032.9 590.749 1034.59 590.298Z" fill="url(#paint81_linear_1011_754)"/>
<path d="M1064.24 581.866L1085.33 576.338C1085.87 576.197 1086.44 576.191 1086.98 576.322L1094.24 578.069C1095.94 578.48 1095.97 580.895 1094.27 581.339L1073.18 586.867C1072.64 587.008 1072.08 587.014 1071.53 586.884L1064.27 585.136C1062.57 584.725 1062.54 582.31 1064.24 581.866Z" fill="url(#paint82_linear_1011_754)"/>
<path d="M1094.46 574.281L1115.12 568.759C1115.67 568.613 1116.24 568.607 1116.8 568.742L1123.89 570.484C1125.58 570.9 1125.61 573.3 1123.92 573.75L1103.27 579.272C1102.72 579.418 1102.14 579.424 1101.59 579.289L1094.5 577.547C1092.8 577.131 1092.78 574.732 1094.46 574.281Z" fill="url(#paint83_linear_1011_754)"/>
<path d="M1124.82 565.851L1145.48 560.329C1146.03 560.183 1146.6 560.177 1147.16 560.312L1154.25 562.054C1155.94 562.47 1155.97 564.87 1154.28 565.32L1133.63 570.842C1133.08 570.988 1132.5 570.994 1131.95 570.859L1124.86 569.117C1123.16 568.701 1123.14 566.302 1124.82 565.851Z" fill="url(#paint84_linear_1011_754)"/>
<path d="M870.984 643.407L891.64 637.885C892.188 637.739 892.764 637.733 893.316 637.868L900.41 639.61C902.105 640.026 902.129 642.425 900.444 642.876L879.788 648.398C879.239 648.544 878.663 648.55 878.112 648.415L871.017 646.673C869.323 646.257 869.298 643.857 870.984 643.407Z" fill="url(#paint85_linear_1011_754)"/>
<path d="M901.343 634.977L921.999 629.455C922.548 629.309 923.124 629.303 923.675 629.438L930.77 631.18C932.464 631.596 932.489 633.995 930.803 634.446L910.147 639.968C909.599 640.114 909.023 640.12 908.471 639.985L901.377 638.243C899.682 637.827 899.658 635.427 901.343 634.977Z" fill="url(#paint86_linear_1011_754)"/>
<path d="M930.995 627.388L952.088 621.86C952.626 621.719 953.192 621.713 953.733 621.843L960.994 623.591C962.699 624.002 962.723 626.417 961.027 626.861L939.935 632.389C939.396 632.53 938.831 632.536 938.29 632.406L931.028 630.658C929.323 630.247 929.299 627.832 930.995 627.388Z" fill="url(#paint87_linear_1011_754)"/>
<path d="M961.219 618.96L981.875 613.438C982.423 613.292 983 613.286 983.551 613.421L990.646 615.163C992.34 615.579 992.365 617.978 990.679 618.429L970.023 623.951C969.475 624.097 968.898 624.103 968.347 623.968L961.253 622.226C959.558 621.81 959.534 619.41 961.219 618.96Z" fill="url(#paint88_linear_1011_754)"/>
<path d="M991.579 610.53L1012.23 605.008C1012.78 604.862 1013.36 604.856 1013.91 604.991L1021.01 606.733C1022.7 607.149 1022.72 609.549 1021.04 609.999L1000.38 615.521C999.834 615.667 999.258 615.673 998.707 615.538L991.612 613.796C989.918 613.38 989.893 610.98 991.579 610.53Z" fill="url(#paint89_linear_1011_754)"/>
<path d="M1021.09 602.943L1041.75 597.421C1042.3 597.275 1042.88 597.269 1043.43 597.404L1050.52 599.146C1052.22 599.562 1052.24 601.962 1050.55 602.412L1029.9 607.934C1029.35 608.08 1028.77 608.086 1028.22 607.951L1021.13 606.209C1019.43 605.793 1019.41 603.394 1021.09 602.943Z" fill="url(#paint90_linear_1011_754)"/>
<path d="M1051.45 594.513L1072.11 588.991C1072.66 588.845 1073.24 588.839 1073.79 588.974L1080.88 590.716C1082.58 591.132 1082.6 593.532 1080.91 593.982L1060.26 599.504C1059.71 599.65 1059.13 599.656 1058.58 599.521L1051.49 597.779C1049.79 597.363 1049.77 594.964 1051.45 594.513Z" fill="url(#paint91_linear_1011_754)"/>
<path d="M1081.11 586.081L1102.2 580.553C1102.74 580.412 1103.3 580.406 1103.84 580.537L1111.11 582.284C1112.81 582.695 1112.83 585.11 1111.14 585.554L1090.05 591.082C1089.51 591.223 1088.94 591.229 1088.4 591.099L1081.14 589.351C1079.43 588.94 1079.41 586.525 1081.11 586.081Z" fill="url(#paint92_linear_1011_754)"/>
<path d="M1111.33 578.496L1131.99 572.974C1132.53 572.828 1133.11 572.822 1133.66 572.957L1140.76 574.699C1142.45 575.115 1142.48 577.515 1140.79 577.965L1120.13 583.487C1119.59 583.633 1119.01 583.639 1118.46 583.504L1111.36 581.762C1109.67 581.346 1109.64 578.947 1111.33 578.496Z" fill="url(#paint93_linear_1011_754)"/>
<path d="M1141.69 570.066L1162.35 564.544C1162.89 564.398 1163.47 564.392 1164.02 564.527L1171.12 566.269C1172.81 566.685 1172.84 569.085 1171.15 569.535L1150.49 575.057C1149.95 575.203 1149.37 575.209 1148.82 575.074L1141.72 573.332C1140.03 572.916 1140 570.517 1141.69 570.066Z" fill="url(#paint94_linear_1011_754)"/>
<path d="M887.85 648.465L908.506 642.943C909.054 642.797 909.631 642.791 910.182 642.926L917.277 644.668C918.971 645.084 918.996 647.483 917.31 647.934L896.654 653.456C896.106 653.602 895.529 653.608 894.978 653.473L887.884 651.731C886.189 651.315 886.165 648.915 887.85 648.465Z" fill="url(#paint95_linear_1011_754)"/>
<path d="M918.21 640.035L938.866 634.513C939.414 634.367 939.99 634.361 940.542 634.496L947.636 636.238C949.331 636.654 949.355 639.053 947.67 639.504L927.014 645.026C926.465 645.172 925.889 645.178 925.338 645.043L918.243 643.301C916.549 642.885 916.524 640.485 918.21 640.035Z" fill="url(#paint96_linear_1011_754)"/>
<path d="M947.861 632.446L968.954 626.918C969.493 626.777 970.058 626.771 970.599 626.901L977.861 628.649C979.566 629.06 979.59 631.475 977.894 631.919L956.801 637.447C956.262 637.588 955.697 637.594 955.156 637.464L947.894 635.716C946.19 635.305 946.165 632.89 947.861 632.446Z" fill="url(#paint97_linear_1011_754)"/>
<path d="M978.086 624.018L998.742 618.496C999.29 618.35 999.866 618.344 1000.42 618.479L1007.51 620.221C1009.21 620.637 1009.23 623.036 1007.55 623.487L986.89 629.009C986.341 629.155 985.765 629.161 985.214 629.026L978.119 627.284C976.424 626.868 976.4 624.468 978.086 624.018Z" fill="url(#paint98_linear_1011_754)"/>
<path d="M1008.45 615.588L1029.1 610.066C1029.65 609.92 1030.23 609.914 1030.78 610.049L1037.87 611.791C1039.57 612.207 1039.59 614.606 1037.91 615.057L1017.25 620.579C1016.7 620.725 1016.12 620.731 1015.57 620.596L1008.48 618.854C1006.78 618.438 1006.76 616.038 1008.45 615.588Z" fill="url(#paint99_linear_1011_754)"/>
<path d="M1037.96 608.001L1058.62 602.479C1059.17 602.333 1059.74 602.327 1060.29 602.462L1067.39 604.204C1069.08 604.62 1069.11 607.02 1067.42 607.47L1046.77 612.992C1046.22 613.138 1045.64 613.144 1045.09 613.009L1037.99 611.267C1036.3 610.851 1036.28 608.452 1037.96 608.001Z" fill="url(#paint100_linear_1011_754)"/>
<path d="M1068.32 599.571L1088.98 594.049C1089.53 593.903 1090.1 593.897 1090.65 594.032L1097.75 595.774C1099.44 596.19 1099.47 598.59 1097.78 599.04L1077.12 604.562C1076.58 604.708 1076 604.714 1075.45 604.579L1068.35 602.837C1066.66 602.421 1066.64 600.022 1068.32 599.571Z" fill="url(#paint101_linear_1011_754)"/>
<path d="M1097.97 591.139L1119.07 585.611C1119.6 585.47 1120.17 585.464 1120.71 585.594L1127.97 587.342C1129.68 587.753 1129.7 590.168 1128 590.612L1106.91 596.14C1106.37 596.281 1105.81 596.287 1105.27 596.157L1098.01 594.409C1096.3 593.998 1096.28 591.583 1097.97 591.139Z" fill="url(#paint102_linear_1011_754)"/>
<path d="M1128.2 583.554L1148.85 578.032C1149.4 577.886 1149.98 577.88 1150.53 578.015L1157.62 579.757C1159.32 580.173 1159.34 582.573 1157.66 583.023L1137 588.545C1136.45 588.691 1135.88 588.697 1135.32 588.562L1128.23 586.82C1126.54 586.404 1126.51 584.005 1128.2 583.554Z" fill="url(#paint103_linear_1011_754)"/>
<path d="M1158.56 575.124L1179.21 569.602C1179.76 569.456 1180.34 569.45 1180.89 569.585L1187.98 571.327C1189.68 571.743 1189.7 574.143 1188.02 574.593L1167.36 580.115C1166.81 580.261 1166.24 580.267 1165.68 580.132L1158.59 578.39C1156.9 577.974 1156.87 575.575 1158.56 575.124Z" fill="url(#paint104_linear_1011_754)"/>
<path d="M904.717 652.68L925.373 647.158C925.921 647.012 926.497 647.006 927.049 647.141L934.143 648.883C935.838 649.299 935.862 651.698 934.177 652.149L913.521 657.671C912.972 657.817 912.396 657.823 911.845 657.688L904.75 655.946C903.056 655.53 903.031 653.13 904.717 652.68Z" fill="url(#paint105_linear_1011_754)"/>
<path d="M935.076 644.25L955.732 638.728C956.28 638.582 956.857 638.576 957.408 638.711L964.503 640.453C966.197 640.869 966.222 643.268 964.536 643.719L943.88 649.241C943.332 649.387 942.755 649.393 942.204 649.258L935.11 647.516C933.415 647.1 933.391 644.7 935.076 644.25Z" fill="url(#paint106_linear_1011_754)"/>
<path d="M964.728 636.661L985.821 631.133C986.359 630.992 986.924 630.986 987.466 631.116L994.727 632.864C996.432 633.275 996.456 635.69 994.76 636.134L973.668 641.662C973.129 641.803 972.564 641.809 972.022 641.678L964.761 639.931C963.056 639.52 963.032 637.105 964.728 636.661Z" fill="url(#paint107_linear_1011_754)"/>
<path d="M994.952 628.233L1015.61 622.711C1016.16 622.565 1016.73 622.559 1017.28 622.694L1024.38 624.436C1026.07 624.852 1026.1 627.251 1024.41 627.702L1003.76 633.224C1003.21 633.37 1002.63 633.376 1002.08 633.241L994.985 631.499C993.291 631.083 993.266 628.683 994.952 628.233Z" fill="url(#paint108_linear_1011_754)"/>
<path d="M1025.31 619.803L1045.97 614.281C1046.52 614.135 1047.09 614.129 1047.64 614.264L1054.74 616.006C1056.43 616.422 1056.46 618.821 1054.77 619.272L1034.12 624.794C1033.57 624.94 1032.99 624.946 1032.44 624.811L1025.35 623.069C1023.65 622.653 1023.63 620.253 1025.31 619.803Z" fill="url(#paint109_linear_1011_754)"/>
<path d="M1054.83 612.216L1075.48 606.694C1076.03 606.548 1076.61 606.542 1077.16 606.677L1084.25 608.419C1085.95 608.835 1085.97 611.234 1084.29 611.685L1063.63 617.207C1063.08 617.353 1062.51 617.359 1061.96 617.224L1054.86 615.482C1053.17 615.066 1053.14 612.667 1054.83 612.216Z" fill="url(#paint110_linear_1011_754)"/>
<path d="M1085.19 603.786L1105.84 598.264C1106.39 598.118 1106.97 598.112 1107.52 598.247L1114.61 599.989C1116.31 600.405 1116.33 602.805 1114.65 603.255L1093.99 608.777C1093.44 608.923 1092.87 608.929 1092.32 608.794L1085.22 607.052C1083.53 606.636 1083.5 604.237 1085.19 603.786Z" fill="url(#paint111_linear_1011_754)"/>
<path d="M1114.84 595.354L1135.93 589.826C1136.47 589.685 1137.04 589.679 1137.58 589.809L1144.84 591.557C1146.54 591.968 1146.57 594.383 1144.87 594.827L1123.78 600.355C1123.24 600.496 1122.67 600.502 1122.13 600.372L1114.87 598.624C1113.17 598.213 1113.14 595.798 1114.84 595.354Z" fill="url(#paint112_linear_1011_754)"/>
<path d="M1145.06 587.769L1165.72 582.247C1166.27 582.101 1166.84 582.095 1167.4 582.23L1174.49 583.972C1176.18 584.388 1176.21 586.788 1174.52 587.238L1153.87 592.76C1153.32 592.906 1152.74 592.912 1152.19 592.777L1145.1 591.035C1143.4 590.619 1143.38 588.22 1145.06 587.769Z" fill="url(#paint113_linear_1011_754)"/>
<path d="M1175.42 579.339L1196.08 573.817C1196.63 573.671 1197.2 573.665 1197.75 573.8L1204.85 575.542C1206.54 575.958 1206.57 578.358 1204.88 578.808L1184.23 584.33C1183.68 584.476 1183.1 584.482 1182.55 584.347L1175.46 582.605C1173.76 582.189 1173.74 579.79 1175.42 579.339Z" fill="url(#paint114_linear_1011_754)"/>
<path d="M921.583 656.895L942.239 651.373C942.787 651.227 943.364 651.221 943.915 651.356L951.01 653.098C952.704 653.514 952.729 655.913 951.043 656.364L930.387 661.886C929.839 662.032 929.262 662.038 928.711 661.903L921.616 660.161C919.922 659.745 919.897 657.345 921.583 656.895Z" fill="url(#paint115_linear_1011_754)"/>
<path d="M951.943 648.465L972.599 642.943C973.147 642.797 973.723 642.791 974.275 642.926L981.369 644.668C983.064 645.084 983.088 647.483 981.403 647.934L960.747 653.456C960.198 653.602 959.622 653.608 959.071 653.473L951.976 651.731C950.282 651.315 950.257 648.915 951.943 648.465Z" fill="url(#paint116_linear_1011_754)"/>
<path d="M981.594 640.876L1002.69 635.348C1003.23 635.207 1003.79 635.201 1004.33 635.331L1011.59 637.079C1013.3 637.49 1013.32 639.905 1011.63 640.349L990.534 645.877C989.995 646.018 989.43 646.024 988.889 645.893L981.627 644.146C979.923 643.735 979.898 641.32 981.594 640.876Z" fill="url(#paint117_linear_1011_754)"/>
<path d="M1011.82 632.448L1032.47 626.926C1033.02 626.78 1033.6 626.774 1034.15 626.909L1041.24 628.651C1042.94 629.067 1042.96 631.466 1041.28 631.917L1020.62 637.439C1020.07 637.585 1019.5 637.591 1018.95 637.456L1011.85 635.714C1010.16 635.298 1010.13 632.898 1011.82 632.448Z" fill="url(#paint118_linear_1011_754)"/>
<path d="M1042.18 624.018L1062.83 618.496C1063.38 618.35 1063.96 618.344 1064.51 618.479L1071.6 620.221C1073.3 620.637 1073.32 623.036 1071.64 623.487L1050.98 629.009C1050.43 629.155 1049.86 629.161 1049.31 629.026L1042.21 627.284C1040.52 626.868 1040.49 624.468 1042.18 624.018Z" fill="url(#paint119_linear_1011_754)"/>
<path d="M1054.89 633.782L1118.93 616.807C1119.47 616.663 1120.04 616.657 1120.59 616.79L1149.98 623.943C1151.67 624.357 1151.7 626.763 1150.01 627.211L1085.97 644.186C1085.42 644.33 1084.85 644.336 1084.3 644.203L1054.92 637.05C1053.22 636.636 1053.2 634.23 1054.89 633.782Z" fill="url(#paint120_linear_1011_754)"/>
<path d="M1071.69 616.431L1092.35 610.909C1092.9 610.763 1093.47 610.757 1094.03 610.892L1101.12 612.634C1102.82 613.05 1102.84 615.449 1101.15 615.9L1080.5 621.422C1079.95 621.568 1079.37 621.574 1078.82 621.439L1071.73 619.697C1070.03 619.281 1070.01 616.881 1071.69 616.431Z" fill="url(#paint121_linear_1011_754)"/>
<path d="M1102.05 608.001L1122.71 602.479C1123.26 602.333 1123.83 602.327 1124.39 602.462L1131.48 604.204C1133.17 604.62 1133.2 607.02 1131.51 607.47L1110.86 612.992C1110.31 613.138 1109.73 613.144 1109.18 613.009L1102.09 611.267C1100.39 610.851 1100.37 608.452 1102.05 608.001Z" fill="url(#paint122_linear_1011_754)"/>
<path d="M1131.71 599.569L1152.8 594.041C1153.34 593.9 1153.9 593.894 1154.44 594.024L1161.7 595.772C1163.41 596.183 1163.43 598.598 1161.74 599.042L1140.65 604.57C1140.11 604.711 1139.54 604.717 1139 604.587L1131.74 602.839C1130.03 602.428 1130.01 600.013 1131.71 599.569Z" fill="url(#paint123_linear_1011_754)"/>
<path d="M1161.93 591.984L1182.59 586.462C1183.13 586.316 1183.71 586.31 1184.26 586.445L1191.36 588.187C1193.05 588.603 1193.08 591.003 1191.39 591.453L1170.73 596.975C1170.19 597.121 1169.61 597.127 1169.06 596.992L1161.96 595.25C1160.27 594.834 1160.24 592.435 1161.93 591.984Z" fill="url(#paint124_linear_1011_754)"/>
<path d="M1192.29 583.554L1212.95 578.032C1213.49 577.886 1214.07 577.88 1214.62 578.015L1221.72 579.757C1223.41 580.173 1223.43 582.573 1221.75 583.023L1201.09 588.545C1200.54 588.691 1199.97 588.697 1199.42 588.562L1192.32 586.82C1190.63 586.404 1190.6 584.005 1192.29 583.554Z" fill="url(#paint125_linear_1011_754)"/>
<path d="M821 444.182C821 438.09 825.079 432.753 830.955 431.157L1121.49 352.24C1125.78 351.075 1130 354.306 1130 358.752V554.067L821 638V444.182Z" fill="url(#paint126_linear_1011_754)"/>
<path fillRule="evenodd" clipRule="evenodd" d="M1127 551.837V361.667C1127 357.277 1122.86 354.086 1118.65 355.237L833.762 433.162C828 434.739 824 440.008 824 446.024V634L1127 551.837Z" fill="url(#paint127_linear_1011_754)"/>
<g filter="url(#filter2_f_1011_754)">
<path fillRule="evenodd" clipRule="evenodd" d="M1127 551.837V361.667C1127 357.277 1122.86 354.086 1118.65 355.237L833.762 433.162C828 434.739 824 440.008 824 446.024V634L1127 551.837Z" fill="url(#paint128_linear_1011_754)"/>
</g>
<path d="M1405.16 527H1279.68C1261.08 527 1246 511.778 1246 493H1198.84C1189.54 493 1182 485.389 1182 476C1182 466.611 1189.54 459 1198.84 459H1324.32C1342.92 459 1358 474.222 1358 493H1405.16C1414.46 493 1422 500.611 1422 510C1422 519.389 1414.46 527 1405.16 527Z" fill="url(#paint129_linear_1011_754)"/>
<path d="M1526.09 575H1360.77C1342.09 575 1326.95 559.778 1326.95 541H1318.91C1309.57 541 1302 533.389 1302 524C1302 514.611 1309.57 507 1318.91 507H1382.33C1401.01 507 1416.16 522.222 1416.16 541H1526.09C1535.43 541 1543 548.611 1543 558C1543 567.389 1535.43 575 1526.09 575Z" fill="url(#paint130_linear_1011_754)"/>
<path fillRule="evenodd" clipRule="evenodd" d="M1162.67 371.004C1166.16 371.678 1169.45 373.16 1172.27 375.324C1175.09 377.488 1177.37 380.279 1178.93 383.475C1180.48 386.671 1181.27 390.186 1181.21 393.736C1181.14 397.34 1178.17 400.212 1174.57 400.15C1170.96 400.088 1168.09 397.117 1168.15 393.513C1168.18 392.034 1167.85 390.549 1167.19 389.184C1166.52 387.818 1165.54 386.615 1164.32 385.68C1163.1 384.744 1161.69 384.108 1160.2 383.82C1158.71 383.532 1157.19 383.601 1155.77 384.008C1152.3 385.001 1148.69 382.997 1147.69 379.532C1146.7 376.067 1148.71 372.454 1152.17 371.461C1155.58 370.483 1159.18 370.331 1162.67 371.004Z" fill="url(#paint131_linear_1011_754)"/>
<path fillRule="evenodd" clipRule="evenodd" d="M1168.86 350.541C1175.04 351.486 1180.85 353.938 1185.78 357.719C1190.7 361.5 1194.58 366.472 1197.09 372.203C1199.6 377.931 1200.68 384.233 1200.29 390.583C1200.07 394.18 1196.97 396.915 1193.37 396.692C1189.77 396.469 1187.04 393.371 1187.26 389.774C1187.53 385.424 1186.79 381.204 1185.14 377.448C1183.49 373.696 1180.98 370.493 1177.83 368.075C1174.68 365.656 1170.94 364.062 1166.88 363.443C1162.83 362.824 1158.56 363.197 1154.43 364.585C1151.01 365.732 1147.31 363.892 1146.17 360.475C1145.02 357.059 1146.86 353.359 1150.27 352.211C1156.31 350.186 1162.67 349.596 1168.86 350.541Z" fill="url(#paint132_linear_1011_754)"/>
<path fillRule="evenodd" clipRule="evenodd" d="M1174.22 329.243C1183.37 330.777 1191.96 334.499 1199.28 340.114C1206.6 345.729 1212.42 353.064 1216.27 361.505C1220.12 369.944 1221.89 379.238 1221.46 388.62C1221.3 392.22 1218.24 395.005 1214.64 394.84C1211.04 394.675 1208.26 391.623 1208.42 388.022C1208.76 380.669 1207.37 373.441 1204.4 366.923C1201.42 360.407 1196.95 354.773 1191.34 350.47C1185.73 346.166 1179.13 343.3 1172.06 342.116C1165 340.932 1157.66 341.462 1150.64 343.692C1147.21 344.784 1143.54 342.885 1142.45 339.45C1141.35 336.015 1143.25 332.345 1146.69 331.253C1155.64 328.408 1165.07 327.71 1174.22 329.243Z" fill="url(#paint133_linear_1011_754)"/>
<path d="M1160.21 403.909C1157.58 407.341 1152.66 407.988 1149.23 405.356C1145.8 402.723 1145.15 397.807 1147.78 394.375C1150.41 390.943 1155.33 390.296 1158.76 392.929C1162.19 395.561 1162.84 400.478 1160.21 403.909Z" fill="url(#paint134_linear_1011_754)"/>
<path fillRule="evenodd" clipRule="evenodd" d="M788.028 437.236L712.193 417.239C710.851 416.876 709.515 416.941 708.312 417.338L696.24 420.538C693.305 421.215 691 423.829 691 427.105V609.686C691 616.944 695.885 623.293 702.901 625.152L783.28 646.456C784.625 646.812 786.04 646.812 787.385 646.455L792.985 644.966C795.942 644.18 798 641.51 798 638.46V450.233C798 444.154 793.914 438.829 788.028 437.236Z" fill="url(#paint135_linear_1011_754)"/>
<path d="M784.84 453.414C784.84 447.343 780.771 442.025 774.911 440.435L699.49 421.239C695.212 420.078 691 423.298 691 427.728V610.004C691 617.277 695.906 623.636 702.941 625.481L774.962 644.368C780.036 645.698 784.996 641.868 784.991 636.623L784.84 453.414Z" fill="url(#paint136_linear_1011_754)"/>
<path fillRule="evenodd" clipRule="evenodd" d="M704.962 624.647C697.916 622.809 693 616.446 693 609.165V430.691C693 426.285 697.17 423.083 701.405 424.237L773.169 443.458C778.972 445.04 783 450.328 783 456.365V634.646C783 639.884 778.05 643.709 772.981 642.387L704.962 624.647Z" fill="url(#paint137_linear_1011_754)"/>
<g filter="url(#filter3_f_1011_754)">
<path fillRule="evenodd" clipRule="evenodd" d="M698.981 623.087C695.458 622.168 693 618.986 693 615.346V430.691C693 426.285 697.17 423.083 701.405 424.237L773.169 443.458C778.972 445.04 783 450.328 783 456.365V624.292C783 634.768 773.099 642.418 762.962 639.774L698.981 623.087Z" fill="url(#paint138_linear_1011_754)"/>
</g>
</g>
<defs>
<filter id="filter0_f_1011_754" x="46.5836" y="24.3279" width="1340.5" height="847.496" filterUnits="userSpaceOnUse" color-interpolation-filters="sRGB">
<feFlood flood-opacity="0" result="BackgroundImageFix"/>
<feBlend mode="normal" in="SourceGraphic" in2="BackgroundImageFix" result="shape"/>
<feGaussianBlur stdDeviation="64" result="effect1_foregroundBlur_1011_754"/>
</filter>
<filter id="filter1_f_1011_754" x="249" y="331" width="1463" height="598" filterUnits="userSpaceOnUse" color-interpolation-filters="sRGB">
<feFlood flood-opacity="0" result="BackgroundImageFix"/>
<feBlend mode="normal" in="SourceGraphic" in2="BackgroundImageFix" result="shape"/>
<feGaussianBlur stdDeviation="64" result="effect1_foregroundBlur_1011_754"/>
</filter>
<filter id="filter2_f_1011_754" x="781.5" y="312.5" width="388" height="364" filterUnits="userSpaceOnUse" color-interpolation-filters="sRGB">
<feFlood flood-opacity="0" result="BackgroundImageFix"/>
<feBlend mode="normal" in="SourceGraphic" in2="BackgroundImageFix" result="shape"/>
<feGaussianBlur stdDeviation="21.25" result="effect1_foregroundBlur_1011_754"/>
</filter>
<filter id="filter3_f_1011_754" x="565" y="296" width="346" height="472.3" filterUnits="userSpaceOnUse" color-interpolation-filters="sRGB">
<feFlood flood-opacity="0" result="BackgroundImageFix"/>
<feBlend mode="normal" in="SourceGraphic" in2="BackgroundImageFix" result="shape"/>
<feGaussianBlur stdDeviation="64" result="effect1_foregroundBlur_1011_754"/>
</filter>
<linearGradient id="paint0_linear_1011_754" x1="655" y1="4.2073e-06" x2="1016.68" y2="1049.26" gradientUnits="userSpaceOnUse">
<stop stop-color="#39003A"/>
<stop offset="0.345" stop-color="#1D003A"/>
<stop offset="1" stop-color="#120024"/>
</linearGradient>
<linearGradient id="paint1_linear_1011_754" x1="532.895" y1="491.238" x2="474" y2="491.238" gradientUnits="userSpaceOnUse">
<stop stop-color="#39013B"/>
<stop offset="1" stop-color="#21013B"/>
</linearGradient>
<linearGradient id="paint2_linear_1011_754" x1="1320.78" y1="457.5" x2="1436" y2="457.5" gradientUnits="userSpaceOnUse">
<stop stop-color="#39013B"/>
<stop offset="1" stop-color="#21013B"/>
</linearGradient>
<linearGradient id="paint3_linear_1011_754" x1="1320.78" y1="457.5" x2="1436" y2="457.5" gradientUnits="userSpaceOnUse">
<stop stop-color="#39013B"/>
<stop offset="1" stop-color="#21013B"/>
</linearGradient>
<linearGradient id="paint4_linear_1011_754" x1="884" y1="822.5" x2="789" y2="822.5" gradientUnits="userSpaceOnUse">
<stop stop-color="#39013B"/>
<stop offset="1" stop-color="#21013B"/>
</linearGradient>
<linearGradient id="paint5_linear_1011_754" x1="884" y1="822.5" x2="789" y2="822.5" gradientUnits="userSpaceOnUse">
<stop stop-color="#39013B"/>
<stop offset="1" stop-color="#21013B"/>
</linearGradient>
<linearGradient id="paint6_linear_1011_754" x1="884" y1="822.5" x2="789" y2="822.5" gradientUnits="userSpaceOnUse">
<stop stop-color="#39013B"/>
<stop offset="1" stop-color="#21013B"/>
</linearGradient>
<linearGradient id="paint7_linear_1011_754" x1="1070" y1="835" x2="1029" y2="835" gradientUnits="userSpaceOnUse">
<stop stop-color="#39013B"/>
<stop offset="1" stop-color="#21013B"/>
</linearGradient>
<linearGradient id="paint8_linear_1011_754" x1="1070" y1="835" x2="1029" y2="835" gradientUnits="userSpaceOnUse">
<stop stop-color="#39013B"/>
<stop offset="1" stop-color="#21013B"/>
</linearGradient>
<linearGradient id="paint9_linear_1011_754" x1="1070" y1="835" x2="1029" y2="835" gradientUnits="userSpaceOnUse">
<stop stop-color="#39013B"/>
<stop offset="1" stop-color="#21013B"/>
</linearGradient>
<linearGradient id="paint10_linear_1011_754" x1="1136" y1="162" x2="1096" y2="162" gradientUnits="userSpaceOnUse">
<stop stop-color="#39013B"/>
<stop offset="1" stop-color="#21013B"/>
</linearGradient>
<linearGradient id="paint11_linear_1011_754" x1="1136" y1="162" x2="1096" y2="162" gradientUnits="userSpaceOnUse">
<stop stop-color="#39013B"/>
<stop offset="1" stop-color="#21013B"/>
</linearGradient>
<linearGradient id="paint12_linear_1011_754" x1="1136" y1="162" x2="1096" y2="162" gradientUnits="userSpaceOnUse">
<stop stop-color="#39013B"/>
<stop offset="1" stop-color="#21013B"/>
</linearGradient>
<linearGradient id="paint13_linear_1011_754" x1="363" y1="573.5" x2="323" y2="573.5" gradientUnits="userSpaceOnUse">
<stop stop-color="#39013B"/>
<stop offset="1" stop-color="#21013B"/>
</linearGradient>
<linearGradient id="paint14_linear_1011_754" x1="363" y1="573.5" x2="323" y2="573.5" gradientUnits="userSpaceOnUse">
<stop stop-color="#39013B"/>
<stop offset="1" stop-color="#21013B"/>
</linearGradient>
<linearGradient id="paint15_linear_1011_754" x1="363" y1="573.5" x2="323" y2="573.5" gradientUnits="userSpaceOnUse">
<stop stop-color="#39013B"/>
<stop offset="1" stop-color="#21013B"/>
</linearGradient>
<linearGradient id="paint16_linear_1011_754" x1="1315" y1="822.5" x2="1285" y2="822.5" gradientUnits="userSpaceOnUse">
<stop stop-color="#39013B"/>
<stop offset="1" stop-color="#21013B"/>
</linearGradient>
<linearGradient id="paint17_linear_1011_754" x1="1339" y1="236.5" x2="1291" y2="236.5" gradientUnits="userSpaceOnUse">
<stop stop-color="#39013B"/>
<stop offset="1" stop-color="#21013B"/>
</linearGradient>
<linearGradient id="paint18_linear_1011_754" x1="476" y1="855" x2="418" y2="855" gradientUnits="userSpaceOnUse">
<stop stop-color="#39013B"/>
<stop offset="1" stop-color="#21013B"/>
</linearGradient>
<linearGradient id="paint19_linear_1011_754" x1="619" y1="236" x2="554" y2="236" gradientUnits="userSpaceOnUse">
<stop stop-color="#39013B"/>
<stop offset="1" stop-color="#21013B"/>
</linearGradient>
<linearGradient id="paint20_linear_1011_754" x1="476" y1="735" x2="716" y2="735" gradientUnits="userSpaceOnUse">
<stop stop-color="#5F0063"/>
<stop offset="1" stop-color="#4E008D"/>
</linearGradient>
<linearGradient id="paint21_linear_1011_754" x1="445" y1="761" x2="685" y2="761" gradientUnits="userSpaceOnUse">
<stop stop-color="#39013B"/>
<stop offset="1" stop-color="#21013B"/>
</linearGradient>
<linearGradient id="paint22_linear_1011_754" x1="1387" y1="321.5" x2="1627" y2="321.5" gradientUnits="userSpaceOnUse">
<stop stop-color="#39013B"/>
<stop offset="1" stop-color="#21013B"/>
</linearGradient>
<linearGradient id="paint23_linear_1011_754" x1="1254" y1="713.5" x2="1495" y2="713.5" gradientUnits="userSpaceOnUse">
<stop stop-color="#39013B"/>
<stop offset="1" stop-color="#21013B"/>
</linearGradient>
<linearGradient id="paint24_linear_1011_754" x1="395" y1="378" x2="635" y2="378" gradientUnits="userSpaceOnUse">
<stop stop-color="#39013B"/>
<stop offset="1" stop-color="#21013B"/>
</linearGradient>
<linearGradient id="paint25_linear_1011_754" x1="416.918" y1="520.419" x2="1432.32" y2="811.123" gradientUnits="userSpaceOnUse">
<stop stop-color="#430086"/>
<stop offset="1" stop-color="#100074"/>
</linearGradient>
<linearGradient id="paint26_linear_1011_754" x1="1472.71" y1="505.506" x2="501.383" y2="439.047" gradientUnits="userSpaceOnUse">
<stop stop-color="#2D005A"/>
<stop offset="1" stop-color="#0C0055"/>
</linearGradient>
<linearGradient id="paint27_linear_1011_754" x1="519.609" y1="485.105" x2="1348.92" y2="722.856" gradientUnits="userSpaceOnUse">
<stop stop-color="#2D005A"/>
<stop offset="1" stop-color="#0C0055"/>
</linearGradient>
<linearGradient id="paint28_linear_1011_754" x1="627.669" y1="352.425" x2="697.333" y2="435.021" gradientUnits="userSpaceOnUse">
<stop stop-color="#501077"/>
<stop offset="1" stop-color="#3D0000"/>
</linearGradient>
<linearGradient id="paint29_linear_1011_754" x1="715.267" y1="248.254" x2="851.9" y2="408.925" gradientUnits="userSpaceOnUse">
<stop stop-color="#751B5D"/>
<stop offset="1" stop-color="#3D002D"/>
</linearGradient>
<linearGradient id="paint30_linear_1011_754" x1="1086.5" y1="236" x2="1086.5" y2="440" gradientUnits="userSpaceOnUse">
<stop stop-color="#6353BC"/>
<stop offset="1" stop-color="#170033"/>
</linearGradient>
<linearGradient id="paint31_linear_1011_754" x1="837.5" y1="298" x2="837.5" y2="502" gradientUnits="userSpaceOnUse">
<stop stop-color="#5B199C"/>
<stop offset="1" stop-color="#11071C"/>
</linearGradient>
<linearGradient id="paint32_linear_1011_754" x1="991" y1="263" x2="991" y2="563" gradientUnits="userSpaceOnUse">
<stop stop-color="#8B7DD8"/>
<stop offset="1" stop-color="#290D4D"/>
</linearGradient>
<linearGradient id="paint33_linear_1011_754" x1="803.781" y1="432.732" x2="842.545" y2="410.339" gradientUnits="userSpaceOnUse">
<stop stop-color="#400F45"/>
<stop offset="1" stop-color="#200159"/>
</linearGradient>
<linearGradient id="paint34_linear_1011_754" x1="1267.92" y1="593.745" x2="893.868" y2="654.663" gradientUnits="userSpaceOnUse">
<stop stop-color="#400F45"/>
<stop offset="1" stop-color="#200159"/>
</linearGradient>
<linearGradient id="paint35_linear_1011_754" x1="829.211" y1="635.554" x2="1222.77" y2="580.087" gradientUnits="userSpaceOnUse">
<stop stop-color="#400046"/>
<stop offset="1" stop-color="#26006B"/>
</linearGradient>
<linearGradient id="paint36_linear_1011_754" x1="829.211" y1="635.554" x2="1222.77" y2="580.087" gradientUnits="userSpaceOnUse">
<stop stop-color="#400046"/>
<stop offset="1" stop-color="#26006B"/>
</linearGradient>
<linearGradient id="paint37_linear_1011_754" x1="829.211" y1="635.554" x2="1222.77" y2="580.087" gradientUnits="userSpaceOnUse">
<stop stop-color="#400046"/>
<stop offset="1" stop-color="#26006B"/>
</linearGradient>
<linearGradient id="paint38_linear_1011_754" x1="829.211" y1="635.554" x2="1222.77" y2="580.087" gradientUnits="userSpaceOnUse">
<stop stop-color="#400046"/>
<stop offset="1" stop-color="#26006B"/>
</linearGradient>
<linearGradient id="paint39_linear_1011_754" x1="829.211" y1="635.554" x2="1222.77" y2="580.087" gradientUnits="userSpaceOnUse">
<stop stop-color="#400046"/>
<stop offset="1" stop-color="#26006B"/>
</linearGradient>
<linearGradient id="paint40_linear_1011_754" x1="829.211" y1="635.554" x2="1222.77" y2="580.087" gradientUnits="userSpaceOnUse">
<stop stop-color="#400046"/>
<stop offset="1" stop-color="#26006B"/>
</linearGradient>
<linearGradient id="paint41_linear_1011_754" x1="829.211" y1="635.554" x2="1222.77" y2="580.087" gradientUnits="userSpaceOnUse">
<stop stop-color="#400046"/>
<stop offset="1" stop-color="#26006B"/>
</linearGradient>
<linearGradient id="paint42_linear_1011_754" x1="829.211" y1="635.554" x2="1222.77" y2="580.087" gradientUnits="userSpaceOnUse">
<stop stop-color="#400046"/>
<stop offset="1" stop-color="#26006B"/>
</linearGradient>
<linearGradient id="paint43_linear_1011_754" x1="829.211" y1="635.554" x2="1222.77" y2="580.087" gradientUnits="userSpaceOnUse">
<stop stop-color="#400046"/>
<stop offset="1" stop-color="#26006B"/>
</linearGradient>
<linearGradient id="paint44_linear_1011_754" x1="829.211" y1="635.554" x2="1222.77" y2="580.087" gradientUnits="userSpaceOnUse">
<stop stop-color="#400046"/>
<stop offset="1" stop-color="#26006B"/>
</linearGradient>
<linearGradient id="paint45_linear_1011_754" x1="829.211" y1="635.554" x2="1222.77" y2="580.087" gradientUnits="userSpaceOnUse">
<stop stop-color="#400046"/>
<stop offset="1" stop-color="#26006B"/>
</linearGradient>
<linearGradient id="paint46_linear_1011_754" x1="829.211" y1="635.554" x2="1222.77" y2="580.087" gradientUnits="userSpaceOnUse">
<stop stop-color="#400046"/>
<stop offset="1" stop-color="#26006B"/>
</linearGradient>
<linearGradient id="paint47_linear_1011_754" x1="829.211" y1="635.554" x2="1222.77" y2="580.087" gradientUnits="userSpaceOnUse">
<stop stop-color="#400046"/>
<stop offset="1" stop-color="#26006B"/>
</linearGradient>
<linearGradient id="paint48_linear_1011_754" x1="829.211" y1="635.554" x2="1222.77" y2="580.087" gradientUnits="userSpaceOnUse">
<stop stop-color="#400046"/>
<stop offset="1" stop-color="#26006B"/>
</linearGradient>
<linearGradient id="paint49_linear_1011_754" x1="829.211" y1="635.554" x2="1222.77" y2="580.087" gradientUnits="userSpaceOnUse">
<stop stop-color="#400046"/>
<stop offset="1" stop-color="#26006B"/>
</linearGradient>
<linearGradient id="paint50_linear_1011_754" x1="829.211" y1="635.554" x2="1222.77" y2="580.087" gradientUnits="userSpaceOnUse">
<stop stop-color="#400046"/>
<stop offset="1" stop-color="#26006B"/>
</linearGradient>
<linearGradient id="paint51_linear_1011_754" x1="829.211" y1="635.554" x2="1222.77" y2="580.087" gradientUnits="userSpaceOnUse">
<stop stop-color="#400046"/>
<stop offset="1" stop-color="#26006B"/>
</linearGradient>
<linearGradient id="paint52_linear_1011_754" x1="829.211" y1="635.554" x2="1222.77" y2="580.087" gradientUnits="userSpaceOnUse">
<stop stop-color="#400046"/>
<stop offset="1" stop-color="#26006B"/>
</linearGradient>
<linearGradient id="paint53_linear_1011_754" x1="829.211" y1="635.554" x2="1222.77" y2="580.087" gradientUnits="userSpaceOnUse">
<stop stop-color="#400046"/>
<stop offset="1" stop-color="#26006B"/>
</linearGradient>
<linearGradient id="paint54_linear_1011_754" x1="829.211" y1="635.554" x2="1222.77" y2="580.087" gradientUnits="userSpaceOnUse">
<stop stop-color="#400046"/>
<stop offset="1" stop-color="#26006B"/>
</linearGradient>
<linearGradient id="paint55_linear_1011_754" x1="829.211" y1="635.554" x2="1222.77" y2="580.087" gradientUnits="userSpaceOnUse">
<stop stop-color="#400046"/>
<stop offset="1" stop-color="#26006B"/>
</linearGradient>
<linearGradient id="paint56_linear_1011_754" x1="829.211" y1="635.554" x2="1222.77" y2="580.087" gradientUnits="userSpaceOnUse">
<stop stop-color="#400046"/>
<stop offset="1" stop-color="#26006B"/>
</linearGradient>
<linearGradient id="paint57_linear_1011_754" x1="829.211" y1="635.554" x2="1222.77" y2="580.087" gradientUnits="userSpaceOnUse">
<stop stop-color="#400046"/>
<stop offset="1" stop-color="#26006B"/>
</linearGradient>
<linearGradient id="paint58_linear_1011_754" x1="829.211" y1="635.554" x2="1222.77" y2="580.087" gradientUnits="userSpaceOnUse">
<stop stop-color="#400046"/>
<stop offset="1" stop-color="#26006B"/>
</linearGradient>
<linearGradient id="paint59_linear_1011_754" x1="829.211" y1="635.554" x2="1222.77" y2="580.087" gradientUnits="userSpaceOnUse">
<stop stop-color="#400046"/>
<stop offset="1" stop-color="#26006B"/>
</linearGradient>
<linearGradient id="paint60_linear_1011_754" x1="829.211" y1="635.554" x2="1222.77" y2="580.087" gradientUnits="userSpaceOnUse">
<stop stop-color="#400046"/>
<stop offset="1" stop-color="#26006B"/>
</linearGradient>
<linearGradient id="paint61_linear_1011_754" x1="829.211" y1="635.554" x2="1222.77" y2="580.087" gradientUnits="userSpaceOnUse">
<stop stop-color="#400046"/>
<stop offset="1" stop-color="#26006B"/>
</linearGradient>
<linearGradient id="paint62_linear_1011_754" x1="829.211" y1="635.554" x2="1222.77" y2="580.087" gradientUnits="userSpaceOnUse">
<stop stop-color="#400046"/>
<stop offset="1" stop-color="#26006B"/>
</linearGradient>
<linearGradient id="paint63_linear_1011_754" x1="829.211" y1="635.554" x2="1222.77" y2="580.087" gradientUnits="userSpaceOnUse">
<stop stop-color="#400046"/>
<stop offset="1" stop-color="#26006B"/>
</linearGradient>
<linearGradient id="paint64_linear_1011_754" x1="829.211" y1="635.554" x2="1222.77" y2="580.087" gradientUnits="userSpaceOnUse">
<stop stop-color="#400046"/>
<stop offset="1" stop-color="#26006B"/>
</linearGradient>
<linearGradient id="paint65_linear_1011_754" x1="829.211" y1="635.554" x2="1222.77" y2="580.087" gradientUnits="userSpaceOnUse">
<stop stop-color="#400046"/>
<stop offset="1" stop-color="#26006B"/>
</linearGradient>
<linearGradient id="paint66_linear_1011_754" x1="829.211" y1="635.554" x2="1222.77" y2="580.087" gradientUnits="userSpaceOnUse">
<stop stop-color="#400046"/>
<stop offset="1" stop-color="#26006B"/>
</linearGradient>
<linearGradient id="paint67_linear_1011_754" x1="829.211" y1="635.554" x2="1222.77" y2="580.087" gradientUnits="userSpaceOnUse">
<stop stop-color="#400046"/>
<stop offset="1" stop-color="#26006B"/>
</linearGradient>
<linearGradient id="paint68_linear_1011_754" x1="829.211" y1="635.554" x2="1222.77" y2="580.087" gradientUnits="userSpaceOnUse">
<stop stop-color="#400046"/>
<stop offset="1" stop-color="#26006B"/>
</linearGradient>
<linearGradient id="paint69_linear_1011_754" x1="829.211" y1="635.554" x2="1222.77" y2="580.087" gradientUnits="userSpaceOnUse">
<stop stop-color="#400046"/>
<stop offset="1" stop-color="#26006B"/>
</linearGradient>
<linearGradient id="paint70_linear_1011_754" x1="829.211" y1="635.554" x2="1222.77" y2="580.087" gradientUnits="userSpaceOnUse">
<stop stop-color="#400046"/>
<stop offset="1" stop-color="#26006B"/>
</linearGradient>
<linearGradient id="paint71_linear_1011_754" x1="829.211" y1="635.554" x2="1222.77" y2="580.087" gradientUnits="userSpaceOnUse">
<stop stop-color="#400046"/>
<stop offset="1" stop-color="#26006B"/>
</linearGradient>
<linearGradient id="paint72_linear_1011_754" x1="829.211" y1="635.554" x2="1222.77" y2="580.087" gradientUnits="userSpaceOnUse">
<stop stop-color="#400046"/>
<stop offset="1" stop-color="#26006B"/>
</linearGradient>
<linearGradient id="paint73_linear_1011_754" x1="829.211" y1="635.554" x2="1222.77" y2="580.087" gradientUnits="userSpaceOnUse">
<stop stop-color="#400046"/>
<stop offset="1" stop-color="#26006B"/>
</linearGradient>
<linearGradient id="paint74_linear_1011_754" x1="829.211" y1="635.554" x2="1222.77" y2="580.087" gradientUnits="userSpaceOnUse">
<stop stop-color="#400046"/>
<stop offset="1" stop-color="#26006B"/>
</linearGradient>
<linearGradient id="paint75_linear_1011_754" x1="829.211" y1="635.554" x2="1222.77" y2="580.087" gradientUnits="userSpaceOnUse">
<stop stop-color="#400046"/>
<stop offset="1" stop-color="#26006B"/>
</linearGradient>
<linearGradient id="paint76_linear_1011_754" x1="829.211" y1="635.554" x2="1222.77" y2="580.087" gradientUnits="userSpaceOnUse">
<stop stop-color="#400046"/>
<stop offset="1" stop-color="#26006B"/>
</linearGradient>
<linearGradient id="paint77_linear_1011_754" x1="829.211" y1="635.554" x2="1222.77" y2="580.087" gradientUnits="userSpaceOnUse">
<stop stop-color="#400046"/>
<stop offset="1" stop-color="#26006B"/>
</linearGradient>
<linearGradient id="paint78_linear_1011_754" x1="829.211" y1="635.554" x2="1222.77" y2="580.087" gradientUnits="userSpaceOnUse">
<stop stop-color="#400046"/>
<stop offset="1" stop-color="#26006B"/>
</linearGradient>
<linearGradient id="paint79_linear_1011_754" x1="829.211" y1="635.554" x2="1222.77" y2="580.087" gradientUnits="userSpaceOnUse">
<stop stop-color="#400046"/>
<stop offset="1" stop-color="#26006B"/>
</linearGradient>
<linearGradient id="paint80_linear_1011_754" x1="829.211" y1="635.554" x2="1222.77" y2="580.087" gradientUnits="userSpaceOnUse">
<stop stop-color="#400046"/>
<stop offset="1" stop-color="#26006B"/>
</linearGradient>
<linearGradient id="paint81_linear_1011_754" x1="829.211" y1="635.554" x2="1222.77" y2="580.087" gradientUnits="userSpaceOnUse">
<stop stop-color="#400046"/>
<stop offset="1" stop-color="#26006B"/>
</linearGradient>
<linearGradient id="paint82_linear_1011_754" x1="829.211" y1="635.554" x2="1222.77" y2="580.087" gradientUnits="userSpaceOnUse">
<stop stop-color="#400046"/>
<stop offset="1" stop-color="#26006B"/>
</linearGradient>
<linearGradient id="paint83_linear_1011_754" x1="829.211" y1="635.554" x2="1222.77" y2="580.087" gradientUnits="userSpaceOnUse">
<stop stop-color="#400046"/>
<stop offset="1" stop-color="#26006B"/>
</linearGradient>
<linearGradient id="paint84_linear_1011_754" x1="829.211" y1="635.554" x2="1222.77" y2="580.087" gradientUnits="userSpaceOnUse">
<stop stop-color="#400046"/>
<stop offset="1" stop-color="#26006B"/>
</linearGradient>
<linearGradient id="paint85_linear_1011_754" x1="829.211" y1="635.554" x2="1222.77" y2="580.087" gradientUnits="userSpaceOnUse">
<stop stop-color="#400046"/>
<stop offset="1" stop-color="#26006B"/>
</linearGradient>
<linearGradient id="paint86_linear_1011_754" x1="829.211" y1="635.554" x2="1222.77" y2="580.087" gradientUnits="userSpaceOnUse">
<stop stop-color="#400046"/>
<stop offset="1" stop-color="#26006B"/>
</linearGradient>
<linearGradient id="paint87_linear_1011_754" x1="829.211" y1="635.554" x2="1222.77" y2="580.087" gradientUnits="userSpaceOnUse">
<stop stop-color="#400046"/>
<stop offset="1" stop-color="#26006B"/>
</linearGradient>
<linearGradient id="paint88_linear_1011_754" x1="829.211" y1="635.554" x2="1222.77" y2="580.087" gradientUnits="userSpaceOnUse">
<stop stop-color="#400046"/>
<stop offset="1" stop-color="#26006B"/>
</linearGradient>
<linearGradient id="paint89_linear_1011_754" x1="829.211" y1="635.554" x2="1222.77" y2="580.087" gradientUnits="userSpaceOnUse">
<stop stop-color="#400046"/>
<stop offset="1" stop-color="#26006B"/>
</linearGradient>
<linearGradient id="paint90_linear_1011_754" x1="829.211" y1="635.554" x2="1222.77" y2="580.087" gradientUnits="userSpaceOnUse">
<stop stop-color="#400046"/>
<stop offset="1" stop-color="#26006B"/>
</linearGradient>
<linearGradient id="paint91_linear_1011_754" x1="829.211" y1="635.554" x2="1222.77" y2="580.087" gradientUnits="userSpaceOnUse">
<stop stop-color="#400046"/>
<stop offset="1" stop-color="#26006B"/>
</linearGradient>
<linearGradient id="paint92_linear_1011_754" x1="829.211" y1="635.554" x2="1222.77" y2="580.087" gradientUnits="userSpaceOnUse">
<stop stop-color="#400046"/>
<stop offset="1" stop-color="#26006B"/>
</linearGradient>
<linearGradient id="paint93_linear_1011_754" x1="829.211" y1="635.554" x2="1222.77" y2="580.087" gradientUnits="userSpaceOnUse">
<stop stop-color="#400046"/>
<stop offset="1" stop-color="#26006B"/>
</linearGradient>
<linearGradient id="paint94_linear_1011_754" x1="829.211" y1="635.554" x2="1222.77" y2="580.087" gradientUnits="userSpaceOnUse">
<stop stop-color="#400046"/>
<stop offset="1" stop-color="#26006B"/>
</linearGradient>
<linearGradient id="paint95_linear_1011_754" x1="829.211" y1="635.554" x2="1222.77" y2="580.087" gradientUnits="userSpaceOnUse">
<stop stop-color="#400046"/>
<stop offset="1" stop-color="#26006B"/>
</linearGradient>
<linearGradient id="paint96_linear_1011_754" x1="829.211" y1="635.554" x2="1222.77" y2="580.087" gradientUnits="userSpaceOnUse">
<stop stop-color="#400046"/>
<stop offset="1" stop-color="#26006B"/>
</linearGradient>
<linearGradient id="paint97_linear_1011_754" x1="829.211" y1="635.554" x2="1222.77" y2="580.087" gradientUnits="userSpaceOnUse">
<stop stop-color="#400046"/>
<stop offset="1" stop-color="#26006B"/>
</linearGradient>
<linearGradient id="paint98_linear_1011_754" x1="829.211" y1="635.554" x2="1222.77" y2="580.087" gradientUnits="userSpaceOnUse">
<stop stop-color="#400046"/>
<stop offset="1" stop-color="#26006B"/>
</linearGradient>
<linearGradient id="paint99_linear_1011_754" x1="829.211" y1="635.554" x2="1222.77" y2="580.087" gradientUnits="userSpaceOnUse">
<stop stop-color="#400046"/>
<stop offset="1" stop-color="#26006B"/>
</linearGradient>
<linearGradient id="paint100_linear_1011_754" x1="829.211" y1="635.554" x2="1222.77" y2="580.087" gradientUnits="userSpaceOnUse">
<stop stop-color="#400046"/>
<stop offset="1" stop-color="#26006B"/>
</linearGradient>
<linearGradient id="paint101_linear_1011_754" x1="829.211" y1="635.554" x2="1222.77" y2="580.087" gradientUnits="userSpaceOnUse">
<stop stop-color="#400046"/>
<stop offset="1" stop-color="#26006B"/>
</linearGradient>
<linearGradient id="paint102_linear_1011_754" x1="829.211" y1="635.554" x2="1222.77" y2="580.087" gradientUnits="userSpaceOnUse">
<stop stop-color="#400046"/>
<stop offset="1" stop-color="#26006B"/>
</linearGradient>
<linearGradient id="paint103_linear_1011_754" x1="829.211" y1="635.554" x2="1222.77" y2="580.087" gradientUnits="userSpaceOnUse">
<stop stop-color="#400046"/>
<stop offset="1" stop-color="#26006B"/>
</linearGradient>
<linearGradient id="paint104_linear_1011_754" x1="829.211" y1="635.554" x2="1222.77" y2="580.087" gradientUnits="userSpaceOnUse">
<stop stop-color="#400046"/>
<stop offset="1" stop-color="#26006B"/>
</linearGradient>
<linearGradient id="paint105_linear_1011_754" x1="829.211" y1="635.554" x2="1222.77" y2="580.087" gradientUnits="userSpaceOnUse">
<stop stop-color="#400046"/>
<stop offset="1" stop-color="#26006B"/>
</linearGradient>
<linearGradient id="paint106_linear_1011_754" x1="829.211" y1="635.554" x2="1222.77" y2="580.087" gradientUnits="userSpaceOnUse">
<stop stop-color="#400046"/>
<stop offset="1" stop-color="#26006B"/>
</linearGradient>
<linearGradient id="paint107_linear_1011_754" x1="829.211" y1="635.554" x2="1222.77" y2="580.087" gradientUnits="userSpaceOnUse">
<stop stop-color="#400046"/>
<stop offset="1" stop-color="#26006B"/>
</linearGradient>
<linearGradient id="paint108_linear_1011_754" x1="829.211" y1="635.554" x2="1222.77" y2="580.087" gradientUnits="userSpaceOnUse">
<stop stop-color="#400046"/>
<stop offset="1" stop-color="#26006B"/>
</linearGradient>
<linearGradient id="paint109_linear_1011_754" x1="829.211" y1="635.554" x2="1222.77" y2="580.087" gradientUnits="userSpaceOnUse">
<stop stop-color="#400046"/>
<stop offset="1" stop-color="#26006B"/>
</linearGradient>
<linearGradient id="paint110_linear_1011_754" x1="829.211" y1="635.554" x2="1222.77" y2="580.087" gradientUnits="userSpaceOnUse">
<stop stop-color="#400046"/>
<stop offset="1" stop-color="#26006B"/>
</linearGradient>
<linearGradient id="paint111_linear_1011_754" x1="829.211" y1="635.554" x2="1222.77" y2="580.087" gradientUnits="userSpaceOnUse">
<stop stop-color="#400046"/>
<stop offset="1" stop-color="#26006B"/>
</linearGradient>
<linearGradient id="paint112_linear_1011_754" x1="829.211" y1="635.554" x2="1222.77" y2="580.087" gradientUnits="userSpaceOnUse">
<stop stop-color="#400046"/>
<stop offset="1" stop-color="#26006B"/>
</linearGradient>
<linearGradient id="paint113_linear_1011_754" x1="829.211" y1="635.554" x2="1222.77" y2="580.087" gradientUnits="userSpaceOnUse">
<stop stop-color="#400046"/>
<stop offset="1" stop-color="#26006B"/>
</linearGradient>
<linearGradient id="paint114_linear_1011_754" x1="829.211" y1="635.554" x2="1222.77" y2="580.087" gradientUnits="userSpaceOnUse">
<stop stop-color="#400046"/>
<stop offset="1" stop-color="#26006B"/>
</linearGradient>
<linearGradient id="paint115_linear_1011_754" x1="829.211" y1="635.554" x2="1222.77" y2="580.087" gradientUnits="userSpaceOnUse">
<stop stop-color="#400046"/>
<stop offset="1" stop-color="#26006B"/>
</linearGradient>
<linearGradient id="paint116_linear_1011_754" x1="829.211" y1="635.554" x2="1222.77" y2="580.087" gradientUnits="userSpaceOnUse">
<stop stop-color="#400046"/>
<stop offset="1" stop-color="#26006B"/>
</linearGradient>
<linearGradient id="paint117_linear_1011_754" x1="829.211" y1="635.554" x2="1222.77" y2="580.087" gradientUnits="userSpaceOnUse">
<stop stop-color="#400046"/>
<stop offset="1" stop-color="#26006B"/>
</linearGradient>
<linearGradient id="paint118_linear_1011_754" x1="829.211" y1="635.554" x2="1222.77" y2="580.087" gradientUnits="userSpaceOnUse">
<stop stop-color="#400046"/>
<stop offset="1" stop-color="#26006B"/>
</linearGradient>
<linearGradient id="paint119_linear_1011_754" x1="829.211" y1="635.554" x2="1222.77" y2="580.087" gradientUnits="userSpaceOnUse">
<stop stop-color="#400046"/>
<stop offset="1" stop-color="#26006B"/>
</linearGradient>
<linearGradient id="paint120_linear_1011_754" x1="829.211" y1="635.554" x2="1222.77" y2="580.087" gradientUnits="userSpaceOnUse">
<stop stop-color="#400046"/>
<stop offset="1" stop-color="#26006B"/>
</linearGradient>
<linearGradient id="paint121_linear_1011_754" x1="829.211" y1="635.554" x2="1222.77" y2="580.087" gradientUnits="userSpaceOnUse">
<stop stop-color="#400046"/>
<stop offset="1" stop-color="#26006B"/>
</linearGradient>
<linearGradient id="paint122_linear_1011_754" x1="829.211" y1="635.554" x2="1222.77" y2="580.087" gradientUnits="userSpaceOnUse">
<stop stop-color="#400046"/>
<stop offset="1" stop-color="#26006B"/>
</linearGradient>
<linearGradient id="paint123_linear_1011_754" x1="829.211" y1="635.554" x2="1222.77" y2="580.087" gradientUnits="userSpaceOnUse">
<stop stop-color="#400046"/>
<stop offset="1" stop-color="#26006B"/>
</linearGradient>
<linearGradient id="paint124_linear_1011_754" x1="829.211" y1="635.554" x2="1222.77" y2="580.087" gradientUnits="userSpaceOnUse">
<stop stop-color="#400046"/>
<stop offset="1" stop-color="#26006B"/>
</linearGradient>
<linearGradient id="paint125_linear_1011_754" x1="829.211" y1="635.554" x2="1222.77" y2="580.087" gradientUnits="userSpaceOnUse">
<stop stop-color="#400046"/>
<stop offset="1" stop-color="#26006B"/>
</linearGradient>
<linearGradient id="paint126_linear_1011_754" x1="1130.42" y1="365.497" x2="820.976" y2="452.298" gradientUnits="userSpaceOnUse">
<stop stop-color="#260034"/>
<stop offset="1" stop-color="#110031"/>
</linearGradient>
<linearGradient id="paint127_linear_1011_754" x1="1127" y1="554.372" x2="824.088" y2="441.595" gradientUnits="userSpaceOnUse">
<stop stop-color="#6F0049"/>
<stop offset="1" stop-color="#6A009C"/>
</linearGradient>
<linearGradient id="paint128_linear_1011_754" x1="1127" y1="554.372" x2="824.088" y2="441.595" gradientUnits="userSpaceOnUse">
<stop stop-color="#6F0049"/>
<stop offset="1" stop-color="#6A009C"/>
</linearGradient>
<linearGradient id="paint129_linear_1011_754" x1="1182" y1="493" x2="1422" y2="493" gradientUnits="userSpaceOnUse">
<stop stop-color="#39013B"/>
<stop offset="1" stop-color="#21013B"/>
</linearGradient>
<linearGradient id="paint130_linear_1011_754" x1="1302" y1="541" x2="1543" y2="541" gradientUnits="userSpaceOnUse">
<stop stop-color="#5F0063"/>
<stop offset="1" stop-color="#4E008D"/>
</linearGradient>
<linearGradient id="paint131_linear_1011_754" x1="1142.11" y1="334.325" x2="1220.1" y2="394.611" gradientUnits="userSpaceOnUse">
<stop stop-color="#190011"/>
<stop offset="1" stop-color="#550000"/>
</linearGradient>
<linearGradient id="paint132_linear_1011_754" x1="1142.11" y1="334.325" x2="1220.1" y2="394.611" gradientUnits="userSpaceOnUse">
<stop stop-color="#190011"/>
<stop offset="1" stop-color="#550000"/>
</linearGradient>
<linearGradient id="paint133_linear_1011_754" x1="1142.11" y1="334.325" x2="1220.1" y2="394.611" gradientUnits="userSpaceOnUse">
<stop stop-color="#190011"/>
<stop offset="1" stop-color="#550000"/>
</linearGradient>
<linearGradient id="paint134_linear_1011_754" x1="1142.11" y1="334.325" x2="1220.1" y2="394.611" gradientUnits="userSpaceOnUse">
<stop stop-color="#190011"/>
<stop offset="1" stop-color="#550000"/>
</linearGradient>
<linearGradient id="paint135_linear_1011_754" x1="802.222" y1="442.002" x2="763.439" y2="419.587" gradientUnits="userSpaceOnUse">
<stop stop-color="#400F45"/>
<stop offset="1" stop-color="#200159"/>
</linearGradient>
<linearGradient id="paint136_linear_1011_754" x1="476.396" y1="375.292" x2="784.985" y2="461.933" gradientUnits="userSpaceOnUse">
<stop stop-color="#260034"/>
<stop offset="1" stop-color="#110031"/>
</linearGradient>
<linearGradient id="paint137_linear_1011_754" x1="695.21" y1="427.198" x2="779.938" y2="642.768" gradientUnits="userSpaceOnUse">
<stop stop-color="#94760B"/>
<stop offset="1" stop-color="#700808"/>
</linearGradient>
<linearGradient id="paint138_linear_1011_754" x1="695.21" y1="427.198" x2="779.938" y2="642.768" gradientUnits="userSpaceOnUse">
<stop stop-color="#94760B"/>
<stop offset="1" stop-color="#700808"/>
</linearGradient>
<clipPath id="clip0_1011_754">
<rect width="1920" height="1080" fill="white"/>
</clipPath>
</defs>
</svg>
